<svg width="352" height="352" viewBox="0 0 352 352" fill="none" xmlns="http://www.w3.org/2000/svg">
<path d="M106.618 155.902C102.328 163.322 118.926 172.905 128.121 163.691C138.073 153.67 111.207 147.99 106.618 155.902Z" fill="#65A638"/>
<path d="M21.8721 218.426C23.3138 210.795 23.4369 209.635 16.4215 214.031C5.37987 209.512 15.138 216.263 8.79083 223.437C14.4172 224.562 14.7688 224.263 17.916 229.468C22.8391 221.925 19.7622 225.828 27.3753 222.435C27.8852 220.923 22.3292 219.657 21.8721 218.426Z" fill="#65A638"/>
<path d="M299.971 219.006C303.171 210.215 304.085 205.538 290.125 211.217C284.112 206.54 280.982 204.747 280.613 215.384C271.822 220.659 272.876 222.733 281.562 224.878C283.18 239.524 288.929 236.711 292.973 227.955C304.032 230.593 307.689 230.329 299.971 219.006Z" fill="#65A638"/>
<path d="M195.919 142.522C195.919 132.799 178.337 140.922 179.849 147.621C181.607 155.638 195.919 151.893 195.919 142.522Z" fill="#65A638"/>
<path d="M78.8745 292.306C77.6261 281.247 75.8327 283.515 69.6789 290.055C59.9559 289.352 61.1867 291.181 65.9515 297.669C65.9515 300.218 62.435 303.611 64.1932 305.211C72.5097 303.84 71.0855 303.963 78.2591 308.992C82.303 299.339 75.4283 303.998 86.6986 296.684C86.6282 294.539 79.8415 293.888 78.8745 292.306Z" fill="#65A638"/>
<path d="M67.6571 67.6223C50.3385 76.6772 38.3122 97.0199 46.1187 134.435C50.6198 155.991 18.4618 190.98 60.1846 199.349C58.022 188.94 57.7582 166.681 81.9163 163.147C86.6635 166.663 88.5272 174.083 94.3294 173.573C64.1934 112.035 142.839 110.998 154.918 76.5542C171.797 109.961 224.069 76.0443 200.913 152.791C277.801 57.2488 137.142 -39.067 67.6571 67.6223ZM124.307 78.2772C123.709 82.2332 119.033 83.9739 112.386 85.82C105.723 99.8859 98.936 99.7276 94.9096 86.2244C79.6833 88.4222 77.5031 79.1915 90.0569 69.4861C86.6284 59.1301 92.6942 55.5257 102.452 60.0092C111.806 53.6268 118.136 57.1433 115.797 67.6399C122.303 71.9124 124.835 75.0421 124.307 78.2772Z" fill="#65A638"/>
<path d="M283.865 297.142C271.558 298.9 278.591 298.373 269.237 293.854C267.795 294.434 268.252 301.151 267.356 301.977C257.984 304.913 261.255 306.865 267.619 309.801C267.479 320.931 271.505 318.135 275.443 310.909C277.29 310.346 283.777 313.757 284.885 311.964C281.316 300.078 280.015 310.504 283.865 297.142Z" fill="#65A638"/>
<path d="M206.943 312.174C206.17 310.275 208.877 303.541 205.835 302.944C190.451 314.706 184.139 296.016 188.376 316.394C180.781 326.346 181.203 326.135 193.159 326.434C195.145 327.893 197.326 335.77 200.631 334.979C206.539 316.482 202.108 326.979 216.104 318.961C216.051 316.253 208.068 314.864 206.943 312.174Z" fill="#65A638"/>
<path d="M111.63 71.1035C108.922 69.3453 111.788 64.2816 110.944 61.8728C110.329 61.8728 108.518 62.3476 103.911 65.0728C103.568 65.2814 103.181 65.406 102.781 65.4366C102.38 65.4671 101.979 65.4027 101.608 65.2486C95.7002 62.7871 94.364 63.297 94.2233 63.297C94.0827 63.297 93.8893 64.5102 95.4717 69.6442C95.6234 70.1402 95.6224 70.6705 95.4688 71.1659C95.3151 71.6613 95.0159 72.0991 94.6101 72.4222C86.9794 78.5057 87.0322 80.8793 87.0322 80.8793C100.061 82.954 95.9464 75.6046 102.716 91.0946C104.034 91.288 105.88 84.7826 109.924 81.1254C112.069 80.5452 118.592 78.787 119.208 77.4507C119.19 77.4683 118.874 75.8156 111.63 71.1035Z" fill="#65A638"/>
<path d="M147.48 311.418C146.703 310.965 145.957 310.46 145.247 309.906C145.423 305.915 149.783 298.056 144.913 295.963C141.062 294.047 135.524 299.673 131.638 301.766C118.68 291.621 114.882 294.065 118.153 309.906C107.885 319.031 111.753 323.585 124.447 323.708C126.311 327.067 127.049 332.974 131.902 333.062C132.309 333.064 132.711 332.969 133.075 332.785C133.438 332.602 133.753 332.335 133.994 332.007C136.104 329.089 137.405 327.119 138.337 325.66C140.834 321.845 139.128 324.113 150.645 320.842C151.081 320.707 151.474 320.458 151.782 320.121C152.091 319.785 152.305 319.372 152.403 318.926C153.3 315.04 149.801 312.86 147.48 311.418ZM141.133 317.783C135.559 318.293 134.698 322.337 131.392 326.785C127.383 316.095 127.225 319.471 117.819 317.818C119.247 315.96 120.868 314.256 122.654 312.737C124.412 311.26 122.654 308.447 122.126 301.449C133.502 309.168 129.95 308.799 141.941 301.185C139.919 309.273 137.862 312.262 146.179 316.711C143.893 317.273 142.293 317.572 141.133 317.783Z" fill="#001434"/>
<path d="M259.654 264.315C260.973 259.937 267.83 251.48 262.978 248.808C259.461 246.434 253.026 250.988 248.912 252.184C235.725 242.83 231.189 244.676 232.789 260.201C219.215 269.432 225.475 273.599 238.063 275.814C239.488 280.016 239.066 288.122 244.2 288.72C244.55 288.755 244.903 288.719 245.239 288.613C245.575 288.507 245.885 288.334 246.151 288.104C256.806 279.032 249.334 279.735 262.098 279.436C263.294 279.278 266.547 279.735 267.373 278.645C272.701 272.948 261.975 267.48 259.654 264.315ZM261.975 274.285C248.367 274.285 251.567 275.726 244.78 282.443C242.318 268.553 242.547 272.263 230.837 268.57C232.706 266.682 234.789 265.018 237.044 263.612C237.415 263.352 237.712 262.999 237.906 262.589C238.101 262.179 238.185 261.726 238.151 261.274C237.781 258.093 237.71 254.885 237.94 251.691C249.51 256.966 244.85 260.113 259.039 253.59C252.71 266.126 252.34 265.019 262.784 274.249L261.975 274.285Z" fill="#001434"/>
<path d="M42.4793 243.744C34.6727 236.711 30.787 240.667 31.9299 250.672C29.0991 252.43 23.8596 253.801 24.9849 257.933C26.1101 262.065 30.7167 261.309 33.776 261.836C34.5145 264.544 34.198 269.151 38.7167 269.432C39.1366 269.451 39.5546 269.364 39.9324 269.18C40.3102 268.996 40.6357 268.719 40.8793 268.377C43.5869 264.579 44.6946 262.733 47.666 262.962C49.0199 262.663 52.2023 263.225 53.4154 261.573C55.8066 257.792 51.7979 255.384 50.0748 253.08C53.7319 245.133 51.1122 240.702 42.4793 243.744ZM38.9628 262.135C38.6463 258.056 35.7452 256.403 31.9299 256.474C38.6463 253.661 36.8705 251.762 36.9936 245.924C38.0661 246.329 40.51 249.845 42.6903 249.001C43.878 248.59 45.087 248.244 46.3122 247.964C45.9606 249.124 45.31 250.83 44.8177 252.184C44.132 254.311 45.9781 256.28 47.3144 257.722C43.0419 258.197 41.987 258.267 39.0331 262.135H38.9628Z" fill="#001434"/>
<path d="M324.252 210.83C321.413 200.958 319.402 190.866 318.239 180.659C306.757 168.229 319.487 212.624 319.346 212.167C325.799 236.167 327.153 241.178 271.874 259.024C271.271 259.27 270.783 259.735 270.508 260.326C270.233 260.917 270.192 261.59 270.392 262.21C270.592 262.83 271.019 263.352 271.587 263.67C272.155 263.989 272.823 264.082 273.457 263.929C331.127 245.274 331.601 238.118 324.252 210.83Z" fill="#001434"/>
<path d="M342.099 231.946C338.055 215.823 331.884 185.283 326.363 172.166C315.673 158.1 295.154 154.373 279.893 159.753C268.165 143.771 249.071 132.676 233.212 122.356C267.866 32.4046 128.949 -22.2939 69.925 50.2682C45.7142 75.7977 7.31443 71.0505 21.433 135.103C25.8813 164.782 9.1254 201.318 59.5866 211.023C62.9624 233.317 71.7535 250.794 85.837 262.926C118.558 292.025 178.9 282.108 190.012 246.698C195.744 243.884 199.155 239.946 200.175 234.917C211.797 237.66 224.298 238.944 224.28 228.94C222.979 222.276 209.757 216.755 199.911 213.819C201.669 197.661 170.777 186.39 160.773 200.825C147.111 197.168 138.549 202.337 145.687 214.012C136.21 217.159 130.144 209.88 127.067 199.77C126.868 199.119 126.422 198.57 125.824 198.242C125.227 197.914 124.525 197.831 123.867 198.012C120.052 199.454 123.322 204.219 124.114 206.645C102.206 201.37 78.3996 221.045 75.9733 243.427C71.956 236.687 68.9301 229.404 66.9887 221.801C64.5545 213.203 63.1151 204.354 62.6987 195.428C62.4525 181.819 67.9733 167.296 82.637 165.696C114.795 202.619 168.79 183.472 206.1 153.74C225.44 171.041 235.708 187.815 236.675 203.603C236.716 204.258 237.003 204.873 237.48 205.324C237.956 205.774 238.587 206.027 239.242 206.03C245.871 203.041 238.188 188.571 235.919 182.452C239.823 173.766 251.743 154.32 266.935 152.878C269.861 155.588 272.566 158.528 275.022 161.67C262.117 168.193 254.68 180.43 255.401 193.845C247.946 200.878 247.787 209.019 247.629 219.638C249.3 222.856 242.724 246.944 248.157 246.276C248.756 246.274 249.336 246.065 249.798 245.683C250.26 245.302 250.574 244.772 250.689 244.183C257.212 219.797 242.249 200.403 273.194 189.678C286.908 199.507 312.35 194.865 306.284 175.032C310.205 173.538 319.875 169.933 321.598 174.1C325.8 184.228 331.092 207.401 334.257 221.256C347.532 251.357 316.675 255.629 276.341 269.801C275.995 269.811 275.654 269.89 275.338 270.032C275.022 270.174 274.737 270.377 274.499 270.629C274.262 270.881 274.076 271.178 273.953 271.502C273.83 271.826 273.772 272.171 273.783 272.517C273.793 272.864 273.872 273.204 274.014 273.52C274.156 273.836 274.359 274.121 274.611 274.359C274.864 274.596 275.16 274.782 275.484 274.905C275.808 275.028 276.153 275.086 276.499 275.075C312.103 264.245 348.587 252.588 342.099 231.946ZM205.309 221.098C215.612 225.282 219.498 228.394 219.023 230.329C217.265 231.841 210.935 232.491 201.616 229.977C204.394 227.691 206.434 224.526 205.309 221.098ZM194.759 212.043C185.335 208.526 174.293 204.465 166.434 202.285C175.208 194.883 194.214 202.83 194.812 212.043H194.759ZM148.448 205.713C151.964 201.546 179.164 211.797 189.291 215.524C176.808 217.863 164.201 222.751 151.296 213.309C148.131 208.456 148.043 206.206 148.448 205.713ZM128.966 214.082C131.395 216.928 134.716 218.867 138.388 219.582C142.061 220.298 145.867 219.747 149.186 218.021C168.526 232.632 191.946 214.399 200.175 222.082C201.599 227.111 187.41 231.7 184.104 232.368C183.471 232.472 182.898 232.807 182.498 233.31C182.099 233.812 181.9 234.446 181.942 235.087C181.984 235.727 182.263 236.33 182.724 236.776C183.186 237.223 183.797 237.482 184.438 237.502C188.144 236.862 191.735 235.677 195.093 233.986C193.898 239.26 188.605 242.865 179.041 244.922C178.43 245.066 177.892 245.428 177.529 245.94C177.165 246.452 177 247.078 177.065 247.703C177.13 248.327 177.419 248.907 177.88 249.333C178.34 249.76 178.941 250.004 179.568 250.021C181.022 249.796 182.456 249.461 183.858 249.018C168.28 279.928 110.927 286.82 80.615 250.056C79.3315 225.951 107.463 202.197 128.966 214.065V214.082ZM64.2459 170.918C57.4591 180.465 56.4921 194.777 58.4613 205.608C14.3122 196.641 31.5428 161.388 26.3736 133.784C15.8243 94.1888 34.6197 77.257 52.1669 70.0131C77.1337 57.7055 78.5403 40.2815 110.03 28.22C179.832 -6.3116 279.137 81.2834 211.691 142.505C233.141 77.3098 184.685 103.138 156.307 70.8923C136.316 104.773 54.2064 104.017 79.9996 160.843C76.8369 161.394 73.8154 162.569 71.1108 164.298C68.4063 166.028 66.0727 168.278 64.2459 170.918ZM203.955 148.782C92.0787 240.315 26.1978 106.461 137.529 105.723C138.183 105.706 138.807 105.442 139.274 104.984C139.741 104.526 140.017 103.907 140.046 103.254C140.075 102.6 139.855 101.959 139.43 101.462C139.005 100.964 138.408 100.646 137.757 100.571C137.388 100.571 132.483 100.343 125.661 100.747C138.338 94.8393 150.54 88.3163 156.887 78.2768C162.461 85.0812 169.599 88.7207 176.896 91.235C172.688 92.3002 168.573 93.6995 164.588 95.4196C163.952 95.704 163.454 96.2297 163.205 96.8809C162.956 97.5321 162.976 98.2555 163.261 98.8921C163.545 99.5286 164.071 100.026 164.722 100.275C165.373 100.524 166.097 100.504 166.733 100.22C175.718 94.8042 201.335 91.2174 209.722 106.479C213.731 114.285 211.867 128.105 203.955 148.782ZM232.79 176.913C226.553 167.076 218.925 158.193 210.144 150.54C218.442 144.041 225.434 136.029 230.75 126.927C241.071 133.608 251.849 140.131 261.994 148.571C248.702 152.246 238.223 166.522 232.86 176.896L232.79 176.913ZM298.53 187.252C288.262 196.518 270.398 177.881 269.203 185.687C266.158 186.891 263.218 188.344 260.412 190.03C265.335 150.241 314.899 168.421 298.6 187.234L298.53 187.252ZM303.717 170.549C300.537 166.782 296.336 164.016 291.62 162.584C299.118 162.161 306.58 163.893 313.123 167.577C309.914 168.318 306.769 169.312 303.717 170.549Z" fill="#001434"/>
<path d="M185.142 102.278C164.043 102.489 155.252 135.262 181.625 136.299C205.555 137.231 211.568 101.979 185.142 102.278ZM172.641 127.86C159.964 112.036 196.429 97.1964 197.256 117.082C189.203 118.207 179.339 122.937 172.641 127.86Z" fill="#001434"/>
<path d="M260.218 243.34C265.862 240.896 262.38 229.959 263.506 222.751C262.416 215.718 266.459 205.643 262.046 204.008C255.013 204.008 260.007 234.636 257.668 240.403C257.615 240.769 257.641 241.141 257.745 241.495C257.849 241.849 258.028 242.177 258.27 242.456C258.512 242.734 258.811 242.957 259.148 243.11C259.484 243.263 259.849 243.341 260.218 243.34Z" fill="#001434"/>
<path d="M156.921 145.934C152.332 148.975 145.211 148.237 142.538 144.457C142.147 143.9 141.55 143.521 140.879 143.404C140.208 143.287 139.518 143.441 138.96 143.833C138.403 144.224 138.024 144.821 137.907 145.492C137.79 146.163 137.945 146.853 138.336 147.411C147.69 160.65 170.547 146.145 156.921 145.934Z" fill="#001434"/>
<path d="M145.264 129.952C149.079 130.971 148.587 123.288 151.84 124.272C156.798 124.747 153.211 133.468 157.607 134.154C165.325 131.85 156.604 118.189 152.648 119.174C149.273 117.222 139.18 126.083 145.264 129.952Z" fill="#001434"/>
<path d="M119.314 112.334C94.9797 112.756 90.4259 149.397 118.118 147.498C141.397 145.934 145.722 111.349 119.314 112.334ZM106.76 139.27C92.8347 122.356 131.375 106.356 132.254 127.683C123.762 128.949 113.3 134.118 106.76 139.27Z" fill="#001434"/>
</svg>
