<svg width="499" height="507" viewBox="0 0 499 507" fill="none" xmlns="http://www.w3.org/2000/svg">
<path d="M93.2956 321.908C100.34 316.76 111.18 211.355 97.6305 208.645C92.4804 207.56 91.3981 214.878 91.3981 222.195C91.3981 229.78 91.9545 248.75 91.3981 285.871C91.1282 309.986 91.3981 322.18 93.2956 321.908Z" fill="#65A638"/>
<path d="M112.532 296.436C108.214 297.877 112.844 307.287 114.157 311.881C114.714 313.778 111.848 316.157 114.714 322.453C116.235 325.575 118.148 328.489 120.406 331.126C122.546 332.795 125.823 330.569 123.929 326.788C122.034 323.007 120.406 320.016 119.864 318.661C118.509 315.136 122.571 312.971 120.42 308.906C115.242 299.961 115.52 295.354 112.532 296.436Z" fill="#65A638"/>
<path d="M93.8386 143.884C73.2801 154.271 90.6528 186.137 110.635 172.879C129.115 160.617 111.796 134.814 93.8386 143.884Z" fill="#65A638"/>
<path d="M146.682 260.129C151.02 266.901 156.699 301.586 167.271 311.602C156.162 291.291 161.851 250.366 157.517 237.629C153.722 230.857 137.464 225.707 132.045 218.934C127.167 239.245 127.167 246.301 127.167 246.301C127.167 246.301 142.609 251.457 146.682 260.129Z" fill="#65A638"/>
<path d="M89.5017 386.398C88.1467 391.815 92.6736 392.605 93.8393 388.835C94.7287 385.768 96.5236 383.04 98.9889 381.01C101.454 378.979 104.475 377.741 107.656 377.456C115.244 376.643 121.746 382.063 124.186 384.77C126.896 387.48 130.146 385.586 127.708 381.791C124.459 376.643 115.516 369.599 107.929 371.496C101.154 331.937 35.7252 351.024 51.2978 387.213C52.8309 390.775 56.4451 387.213 55.36 383.418C46.1478 357.137 96.004 340.877 102.239 372.311C99.2387 373.622 96.5513 375.556 94.3553 377.985C92.1593 380.413 90.5048 383.281 89.5017 386.398Z" fill="#65A638"/>
<path d="M114.7 78.3036C110.908 63.1316 104.406 53.1042 100.068 41.7245C97.0882 34.1372 95.7333 15.4401 92.7534 15.1702C89.231 14.8919 88.9583 36.0375 85.4387 42.537C79.2036 53.6467 73.7864 70.4463 70.8038 80.2011C73.7864 83.1893 106.843 85.3567 114.7 78.3036Z" fill="#65A638"/>
<path d="M16.8831 380.436C16.8831 380.436 -2.35661 397.506 -3.98426 399.676C-5.61192 401.846 -3.17183 410.786 -2.08673 413.223C-0.731743 415.663 45.8747 447.635 45.8747 447.635C43.6639 450.117 41.3117 452.471 38.8299 454.682C38.0175 454.961 15.2554 440.59 15.2554 440.59C15.2554 440.59 16.296 456.338 18.2353 459.017C19.8267 461.21 60.5069 484.759 79.2012 491.804C81.1741 492.547 83.2832 492.859 85.3867 492.718C87.4901 492.578 89.5392 491.989 91.3961 490.991C114.971 478.254 156.97 452.242 158.594 449.257C160.492 446.004 162.932 424.87 162.932 424.87C124.208 442.938 122.449 453.297 108.276 439.41C103.366 434.6 80.7983 414.114 80.7983 414.114L16.8831 380.436Z" fill="#65A638"/>
<path d="M160.224 382.876C159.412 383.282 115.526 400.886 93.5878 409.681C98.9354 416.08 111.673 430.715 119.85 431.92C128.792 433.005 174.584 409.7 175.939 405.093C177.288 400.772 165.371 389.643 160.224 382.876Z" fill="#65A638"/>
<path d="M191.115 362.012C195.45 345.482 176.752 333.017 159.953 337.625C159.953 328.682 152.908 324.618 146.136 324.348C134.484 323.791 130.958 333.56 133.941 336.27C135.296 337.352 136.378 336.812 137.194 335.185C141.528 324.612 158.061 330.58 153.993 339.792C149.658 341.417 144.778 346.025 143.977 349.274C143.164 352.8 145.332 353.612 147.772 351.172C157.527 342.502 164.299 340.599 172.971 342.502C176.987 343.238 180.549 345.531 182.884 348.88C185.218 352.229 186.135 356.365 185.436 360.387C177.306 359.029 171.616 363.909 173.514 366.889C174.866 369.326 183.808 362.824 189.771 367.702C192.208 369.599 193.023 373.122 191.666 377.996C190.308 382.871 195.461 383.413 196.546 379.348C197.879 373.664 198.157 364.992 191.115 362.012Z" fill="#65A638"/>
<path d="M65.9265 318.658C64.2051 326.217 61.4714 333.508 57.7993 340.335C55.0894 344.94 59.0848 346.788 61.3217 343.858C65.6846 337.579 68.9805 330.622 71.0765 323.269C73.5138 314.056 72.9741 312.974 70.5201 309.722C69.1651 307.824 75.6673 296.714 71.6052 295.632C69.9775 295.354 68.3526 295.354 67.8101 297.799C67.2675 303.489 61.6695 308.842 65.1001 313.787C65.6951 314.431 66.09 315.235 66.2367 316.1C66.3834 316.965 66.2756 317.854 65.9265 318.658Z" fill="#65A638"/>
<path d="M448.801 277.471C448.244 271.239 442.298 259.586 434.981 251.187C423.141 256.034 410.902 259.842 398.402 262.566C388.647 271.239 367.518 297.793 359.653 276.928C337.433 300.503 329.306 291.831 321.449 265.276C302.479 281.533 304.376 248.749 302.479 234.93C296.519 227.612 292.463 221.652 292.463 221.652C248.024 237.637 274.038 244.954 277.558 273.682L285.148 258.78C285.148 258.78 281.895 315.411 284.591 339.528C318.463 362.017 402.189 367.437 417.093 355.785L400.294 328.415C400.299 327.875 416.568 293.186 448.801 277.471Z" fill="#65A638"/>
<path d="M59.1542 245.766C59.1542 245.766 59.1542 238.451 54.2768 218.399C48.8569 225.444 32.5998 230.594 28.8048 237.096C26.3675 241.431 27.4498 240.076 26.9072 262.296C27.7197 277.198 23.9274 295.625 19.5925 311.339C34.7672 288.037 33.4123 249.018 59.1542 245.766Z" fill="#65A638"/>
<path d="M-3.70929 357.134C-3.39573 360.215 -2.37603 363.181 -0.729431 365.804C0.895437 367.431 3.60541 365.804 2.52309 362.011C-2.89685 344.127 13.082 324.884 31.7846 344.127C34.4557 346.876 36.662 344.405 35.3098 340.874C32.5999 334.372 34.2609 329.87 38.2897 328.41C44.5805 326.131 48.8903 333.078 51.8367 331.392C52.1441 331.159 52.398 330.862 52.5813 330.523C52.7646 330.183 52.8731 329.808 52.8995 329.423C52.9258 329.038 52.8695 328.652 52.7341 328.29C52.5988 327.929 52.3877 327.6 52.115 327.327C50.414 325.244 48.1495 323.695 45.5919 322.865C43.0343 322.034 40.2917 321.957 37.6915 322.643C35.0913 323.329 32.7435 324.749 30.9284 326.733C29.1133 328.717 27.9077 331.181 27.4554 333.832C13.9083 325.43 -3.98473 336.539 -3.98473 351.444C-18.6169 353.612 -18.8868 367.701 -13.7395 373.664C-11.0295 376.914 -7.23447 375.559 -9.40189 371.766C-12.6516 364.452 -10.7569 358.216 -3.70929 357.134Z" fill="#65A638"/>
<path d="M88.1467 170.168C103.594 172.605 109.824 160.683 107.929 150.389C106.031 140.904 97.0779 133.316 84.3544 138.736C70.8045 144.969 73.7872 167.728 88.1467 170.168ZM80.2894 150.389C87.6041 129.799 116.599 150.389 98.444 163.936C89.7743 170.711 77.0397 160.141 80.2894 150.389Z" fill="#001434"/>
<path d="M494.051 315.947C493.773 315.669 493.773 315.405 493.509 315.132C500.554 299.148 491.342 285.055 473.999 288.308C469.665 280.45 462.077 264.463 457.47 256.868C468.852 254.158 478.337 241.693 476.439 230.583C496.75 224.081 500.826 190.482 488.089 176.392C501.909 149.568 490.529 130.055 469.934 123.553C464.245 92.9478 441.213 80.1993 419.536 82.0968C390.814 40.3621 334.453 49.0374 329.575 89.954C305.731 88.0565 286.221 110.821 290.286 133.308C272.944 136.561 264.002 162.302 273.487 176.392C264.814 186.147 269.692 206.997 280.531 214.326C264.544 221.101 241.242 233.836 236.092 236.815C225.798 224.893 201.681 231.398 205.209 250.905C205.189 251.217 205.107 251.521 204.967 251.801C204.827 252.081 204.633 252.329 204.396 252.533C169.442 280.982 210.899 349.265 264.82 319.461C264.007 324.608 262.655 331.114 267.53 334.636C265.635 359.835 261.84 392.892 264.55 411.046C224.448 444.916 305.467 457.11 336.89 447.086C342.58 464.155 396.231 466.595 419.525 457.937C443.911 448.994 452.311 444.929 451.772 428.672C450.956 405.913 449.874 392.093 449.601 373.669C479.419 373.391 510.581 341.416 494.051 315.947ZM277.822 197.535C275.924 192.115 274.029 184.8 279.177 180.465C283.784 175.858 270.507 166.646 278.364 151.471C279.989 148.218 283.784 140.361 292.996 140.091C301.396 139.813 290.829 121.937 304.376 107.844C307.575 104.029 311.688 101.085 316.33 99.2848C320.973 97.485 325.995 96.8881 330.93 97.5497C336.35 98.1062 336.35 91.8599 336.893 89.4198C342.04 57.9797 387.022 50.6734 411.678 83.9999C400.827 88.8801 401.662 95.1097 405.176 94.8509C408.699 94.2944 409.241 91.871 418.723 89.431C428.478 86.721 440.67 91.0558 449.607 99.7255C464.512 114.628 463.699 137.12 463.699 137.12C463.421 141.994 471.556 143.622 470.741 131.157C487.271 137.66 491.33 158.524 480.226 174.511C479.744 175.284 479.561 176.205 479.71 177.104C479.86 178.002 480.332 178.814 481.039 179.389C486.731 183.996 489.53 195.604 487.271 205.943C486.094 211.343 483.479 221.118 472.096 224.098C471.014 224.376 469.116 225.453 469.389 228.975C470.471 242.522 459.373 254.174 443.105 248.757C458.819 237.105 474.267 209.195 454.214 197.813C445.272 192.666 442.835 180.744 453.402 164.484C459.634 154.467 434.162 163.401 424.95 139.287C421.7 132.512 396.228 147.684 383.215 125.467C382.768 124.691 382.058 124.101 381.214 123.803C380.369 123.505 379.446 123.519 378.611 123.843C353.411 132.782 346.077 114.104 345.821 113.27C341.648 99.8229 273.559 146.379 285.94 208.92C282.052 206.125 279.198 202.122 277.822 197.535ZM346.375 253.354C303.021 241.701 285.679 215.959 294.624 177.213C314.406 193.47 333.913 188.064 340.96 175.045C348.548 160.956 345.835 141.174 317.113 135.214C323.888 128.44 331.888 123.015 340.688 119.227C344.483 125.729 355.32 138.736 378.625 131.691C389.732 147.676 410.065 146.594 419.803 144.969C422.195 149.912 425.644 154.269 429.905 157.734C434.166 161.198 439.135 163.685 444.462 165.018C435.79 181.818 439.042 196.18 450.422 203.767C456.385 207.832 459.907 210.812 455.572 221.109C439.318 259.313 387.834 264.463 346.375 253.354ZM389.189 265.818C381.059 272.863 373.472 282.618 369.137 281.805C364.802 280.993 362.362 270.696 359.925 263.651C369.553 265.578 379.382 266.31 389.189 265.829V265.818ZM339.06 259.043C343.227 260.413 347.481 261.5 351.795 262.296C353.053 266.372 354.593 270.355 356.402 274.218C348.815 280.178 338.788 288.85 335.535 286.413C332.555 284.243 329.03 275.031 326.323 267.173C330.797 264.839 335.059 262.119 339.06 259.043ZM312.23 265.551C308.981 264.736 307.353 252.001 306.001 242.247C313.42 248.154 321.746 252.821 330.658 256.066C324.428 260.128 315.486 266.361 312.23 265.551ZM305.458 175.318C315.913 168.882 325.714 161.441 334.723 153.101C344.472 172.594 323.796 186.317 305.461 175.315L305.458 175.318ZM288.928 218.945C291.074 224.364 294.096 229.394 297.874 233.833C299.498 243.318 300.311 282.607 319.281 270.415C322.53 278.272 329.019 294.935 335.808 295.071C337.705 295.11 342.583 293.444 359.382 280.709C368.594 300.219 387.292 275.832 401.117 264.722C413.322 263.464 425.133 259.681 435.798 253.615C440.006 255.759 444.629 256.961 449.348 257.137C451.246 260.117 454.226 265.537 457.205 271.227C432.818 273.937 408.974 293.986 398.949 319.728C389.464 304.556 387.027 295.884 384.317 302.116C381.877 307.264 386.755 313.226 391.905 322.168C397.594 331.923 404.639 343.845 411.141 352.788C381.065 360.915 315.491 360.375 271.055 326.233C274.847 293.174 284.059 261.472 285.684 254.425C287.312 247.11 279.994 250.363 278.912 255.24C278.1 258.49 277.827 259.575 274.847 270.142C269.697 256.595 261.84 241.69 255.338 234.103C266.172 228.967 280.262 222.194 288.931 218.942L288.928 218.945ZM266.169 309.718C261.292 315.135 228.232 325.975 213.6 310.53C220.915 306.195 227.42 303.755 225.522 300.235C223.625 296.716 222.27 298.88 208.45 304.843C204.549 299.733 201.862 293.803 200.593 287.501C213.873 280.996 217.393 280.726 216.31 278.016C215.228 275.306 211.703 275.036 199.511 279.913C198.698 267.719 203.576 261.759 208.993 257.967C215.768 253.359 208.993 243.877 216.04 239.812C225.253 234.392 229.573 242.898 235.55 243.604C238.254 243.924 242.052 242.792 248.827 238.184C255.599 245.229 267.794 268.261 271.586 284.248C269.338 292.637 267.531 301.137 266.172 309.715L266.169 309.718ZM337.43 439.779C302.476 449.264 263.187 435.714 261.292 430.297C259.122 426.502 265.354 420.542 269.961 416.208C278.089 421.897 314.67 433.277 341.495 427.587C341.831 428.741 342.489 429.775 343.392 430.567C340.798 433.198 338.77 436.332 337.432 439.777L337.43 439.779ZM340.412 420.542C317.49 423.899 294.092 420.015 273.484 409.433C267.252 405.91 274.026 354.969 274.566 338.712C320.36 364.454 372.114 370.953 416.553 359.301C419.617 363.3 423.498 366.6 427.936 368.983C432.374 371.365 437.269 372.776 442.295 373.121C443.38 393.17 445.005 405.908 443.65 427.854C413.301 440.046 356.399 430.834 349.082 424.875C345.463 408.046 344.822 390.713 347.187 373.663C347.187 372.036 346.645 369.326 344.747 369.056C334.995 367.431 339.873 413.492 340.415 420.54L340.412 420.542ZM417.365 450.889C380.244 462.541 347.187 450.889 344.191 445.742C343.378 444.387 343.912 441.134 349.881 433.82C370.47 441.677 420.062 446.554 446.073 435.175C443.11 442.759 424.143 448.719 417.368 450.886L417.365 450.889ZM478.604 354.696C473.398 358.961 467.418 362.181 460.992 364.181C455.845 354.165 452.526 346.781 449.882 349.819C447.1 353.013 448.797 353.884 453.405 365.806C426.038 370.414 416.553 348.737 403.818 328.954C411.403 301.858 436.063 280.181 460.719 279.098C462.93 284.185 465.559 289.079 468.579 293.73C469.634 294.755 470.948 295.473 472.38 295.807C473.811 296.142 475.307 296.08 476.707 295.628C478.62 295.122 480.64 295.186 482.519 295.811C484.397 296.437 486.051 297.598 487.279 299.15C488.203 300.807 488.688 302.672 488.688 304.569C488.688 306.466 488.203 308.331 487.279 309.987C482.402 320.56 494.597 323.535 490.262 337.897C489.054 342.106 486.924 345.993 484.027 349.276C476.17 340.064 473.732 332.477 471.022 337.627C468.852 341.959 473.46 345.481 478.612 354.694L478.604 354.696Z" fill="#001434"/>
<path d="M350.983 141.182C354.236 139.288 352.608 132.783 343.396 129.53C336.351 127.093 328.764 128.448 329.033 132.783C329.312 138.203 336.621 132.783 346.376 140.37C346.892 141.072 347.659 141.548 348.517 141.699C349.375 141.85 350.258 141.665 350.983 141.182Z" fill="#001434"/>
<path d="M349.358 172.879C341.498 175.317 339.342 188.054 343.938 189.949C344.422 190.101 344.934 190.141 345.435 190.066C345.936 189.991 346.414 189.803 346.832 189.515C347.25 189.228 347.597 188.85 347.846 188.408C348.096 187.967 348.242 187.475 348.273 186.969C347.925 183.997 347.995 181.006 351.253 179.924C355.318 178.839 358.57 180.202 362.104 184.259C362.425 184.657 362.827 184.984 363.283 185.216C363.739 185.449 364.239 185.583 364.75 185.609C365.262 185.635 365.773 185.553 366.25 185.369C366.728 185.184 367.161 184.901 367.521 184.537C371.772 180.394 360.195 169.627 349.358 172.879Z" fill="#001434"/>
<path d="M398.67 157.977C403.439 159.089 407.948 161.112 411.948 163.937C416.013 167.189 422.242 163.937 417.368 158.247C412.481 153.218 405.933 150.137 398.943 149.577C394.063 149.305 393.25 156.892 398.67 157.977Z" fill="#001434"/>
<path d="M359.925 208.377C355.066 209.097 350.121 209.003 345.293 208.099C331.203 205.391 346.917 235.195 358.84 233.298C368.867 231.679 371.574 205.937 359.925 208.377Z" fill="#001434"/>
<path d="M419.266 173.69C395.149 153.379 364.26 172.335 373.202 197.535C377.537 209.457 395.964 219.754 408.969 217.317C428.478 214.334 436.066 187.78 419.266 173.69ZM407.614 210.269C401.924 211.354 392.982 207.832 386.746 202.682C397.14 196.232 407.017 188.984 416.289 181.005C426.862 189.677 420.078 208.102 407.614 210.269Z" fill="#001434"/>
<path d="M91.129 185.343C134.753 185.343 132.864 121.395 90.8508 122.207C50.2124 123.02 51.8373 185.343 91.129 185.343ZM72.4319 136.57C87.0641 117.872 120.393 132.235 117.681 154.994C112.263 200.245 43.7101 173.691 72.4319 136.57Z" fill="#001434"/>
<path d="M11.464 321.637C26.099 326.244 34.7686 282.891 39.1035 272.863C42.356 259.856 44.5234 256.606 56.4456 250.913C58.8829 258.231 55.0906 271.781 64.3029 276.385C58.3404 291.56 68.9104 291.83 80.8326 293.185C82.7301 316.217 84.6248 325.429 92.2122 325.429C99.7996 325.429 101.155 314.05 103.063 293.455C113.636 292.373 131.242 291.018 121.758 276.655C130.7 272.32 127.177 258.773 129.345 251.456C140.997 257.149 142.622 260.398 145.875 273.133C150.752 285.328 156.984 318.657 170.531 322.449C171.443 322.473 172.347 322.287 173.175 321.906C174.003 321.526 174.733 320.961 175.309 320.254C175.885 319.548 176.291 318.719 176.496 317.831C176.702 316.943 176.701 316.02 176.494 315.132C171.347 294.543 171.347 260.671 171.886 243.871C172.429 217.587 152.377 219.212 137.747 206.477C161.589 136.299 140.997 76.4153 103.333 34.4136C96.0156 27.9113 100.353 0.271828 91.9534 0.00194404C83.5537 -0.26794 89.2435 27.6414 81.9371 34.4136C42.6259 79.9377 24.2014 136.569 47.5033 206.207C32.8711 218.942 12.2792 217.317 12.8218 243.871C13.6342 260.671 13.6342 294.54 8.21428 315.132C7.94116 316.424 8.11375 317.77 8.7039 318.952C9.29405 320.133 10.267 321.079 11.464 321.637ZM68.0979 284.785C68.8931 282.689 69.4384 280.507 69.7228 278.283C73.0269 279.02 76.3714 279.563 79.7391 279.908C80.0173 282.348 80.0173 285.055 80.2956 287.495C76.1622 286.928 72.0825 286.022 68.0979 284.785ZM91.9423 317.302C86.2525 294.81 84.0823 229.779 84.0823 211.624C86.5224 207.02 96.0045 205.935 98.4446 211.624C101.722 219.818 95.6289 308.543 91.9423 317.302ZM103.322 287.495C103.653 284.979 103.839 282.446 103.878 279.908C108.213 279.63 112.278 278.826 115.801 278.283C116.376 280.445 117.194 282.536 118.238 284.515C113.36 285.933 108.37 286.93 103.322 287.495ZM148.301 221.922C156.973 227.342 165.373 228.967 164.561 243.599C163.748 259.043 163.748 288.85 167.813 310.527C159.141 295.625 153.993 272.321 148.573 257.961C145.321 251.186 135.296 246.036 130.419 243.871C132.316 232.219 134.211 222.726 136.109 214.607C140.444 217.317 144.236 219.484 148.301 221.922ZM84.8975 43.086C88.1472 39.2909 91.1299 35.4987 92.2122 22.7752C92.2122 22.2187 93.0246 22.2187 93.2973 22.7752C94.6523 35.2371 97.6321 39.0322 100.069 42.2847C106.032 50.6845 113.619 57.7293 121.746 73.4466C108.742 82.119 78.1226 83.2014 64.3029 73.4466C70.374 62.8101 77.2594 52.6596 84.8975 43.086ZM61.323 78.3017C77.0403 88.8745 109.012 88.0565 124.459 78.3017C126.931 82.9853 129.19 87.7775 131.231 92.664C115.244 108.109 70.5352 107.566 54.8208 91.5789C56.9882 87.2524 59.1556 82.6449 61.323 78.3017ZM44.5234 138.194C44.6989 124.286 47.3599 110.521 52.3807 97.5497C70.5352 113.537 114.983 114.077 133.399 98.3622C145.863 127.626 139.815 171.606 132.586 196.992C125.969 220.181 121.613 243.957 119.579 267.986C116.872 271.508 110.637 270.696 104.407 272.051C105.759 253.626 108.094 213.85 104.947 207.832C99.3349 197.092 81.9177 198.077 77.0403 208.389C75.9552 210.556 75.4126 217.058 78.935 271.792C73.5151 270.71 68.0979 271.252 65.6578 267.727C60.5106 204.31 45.6057 196.722 44.5234 138.194ZM20.1365 243.329C19.324 223.277 38.0212 223.816 49.4008 213.8C51.2983 222.2 53.463 231.412 55.0906 243.334C50.2132 245.502 39.646 250.919 36.3935 257.694C30.7037 272.056 25.8207 295.358 17.1566 310.263C20.9489 288.85 20.9489 259.043 20.1365 243.329Z" fill="#001434"/>
<path d="M80.8315 432.189C80.8315 436.253 82.4563 477.983 82.4563 483.402C82.4563 490.99 88.1462 490.447 88.1462 486.652C88.1462 480.15 87.0639 443.571 86.7912 436.796C86.5213 429.751 80.8315 428.396 80.8315 432.189Z" fill="#001434"/>
<path d="M155.348 375.289C154.52 374.838 153.567 374.674 152.635 374.821C151.704 374.968 150.848 375.418 150.198 376.101C147.218 378.539 153.178 380.436 155.618 381.791C116.059 398.321 85.9798 409.97 82.1875 410.243C76.7675 409.431 32.3285 386.399 18.5088 377.999C22.5737 374.746 35.3111 370.951 31.5161 367.983C29.3486 366.358 27.7349 366.953 25.5563 367.443C17.4682 369.262 -4.52042 382.075 -14.0053 389.12C-22.8837 395.63 -35.3206 406.003 -27.5552 413.777C-19.4253 420.821 -5.87819 431.389 1.70917 436.539C1.70917 441.686 2.38806 456.043 2.52439 461.735C2.5985 463.286 3.27895 464.746 4.41914 465.8C17.969 477.995 75.6824 508.614 86.2524 505.904C100.069 502.382 153.451 473.118 170.25 458.216C175.398 453.608 172.69 438.164 173.23 422.719C188.405 412.146 196.154 407.541 196.262 403.209C196.398 397.773 177.025 385.314 155.348 375.289ZM3.06416 428.125C-2.08311 424.333 -21.1419 412.708 -22.4051 408.076C-23.5792 403.763 -6.9605 391.546 11.1941 382.064C20.9488 388.836 58.8829 408.346 74.87 415.12C38.0211 447.635 43.1823 450.617 37.4785 450.075C33.6835 450.347 9.5692 432.732 3.06416 428.125ZM166.995 450.075C154.803 463.624 141.796 469.042 124.996 479.066C112.261 486.114 93.8342 497.766 85.1645 498.306C73.7849 499.118 31.2434 474.462 13.1027 462.809C12.2928 462.273 11.6237 461.55 11.1521 460.701C10.6804 459.853 10.42 458.903 10.3928 457.932C10.1145 453.597 9.8363 446.552 9.8363 441.132C58.6102 474.731 29.076 455.225 82.4546 418.913C130.416 461.724 96.2743 460.647 166.455 426.5C166.717 433.005 167.273 443.842 166.995 450.075ZM171.333 414.848C169.127 416.438 166.766 417.8 164.285 418.913C132.809 433.703 123.914 442.487 118.494 443.03C112.531 443.572 111.179 434.63 90.0419 415.933C104.944 411.055 136.106 398.591 162.382 387.481C172.398 391.546 186.226 399.946 186.496 403.198C186.507 405.366 176.753 411.325 171.335 414.848H171.333Z" fill="#001434"/>
</svg>
