<svg width="454" height="473" viewBox="0 0 454 473" fill="none" xmlns="http://www.w3.org/2000/svg">
<g filter="url(#filter0_d_3003_2)">
<path fill-rule="evenodd" clip-rule="evenodd" d="M144.508 194.549L139.924 185.607L114.771 198.902C107.884 202.542 99.815 196.699 101.125 189.02L105.66 162.44L79.037 159.026C71.331 158.038 68.089 148.654 73.542 143.12L93.641 122.723L73.19 102.681C67.642 97.2439 70.719 87.8049 78.406 86.6819L104.968 82.8008L99.973 56.3019C98.53 48.6479 106.495 42.6649 113.443 46.1839L138.825 59.0359L151.397 33.4259C154.835 26.4219 164.819 26.4219 168.257 33.4259L180.09 57.5309L203.542 44.6049C210.364 40.8439 218.535 46.5469 217.358 54.2469L213.033 82.5599L241.248 86.6819C248.935 87.8049 252.011 97.2439 246.463 102.681L227.208 121.551L232.39 126.455C226.881 132.367 221.885 138.222 217.597 143.843L196.032 142.156C191.811 141.826 187.686 143.544 184.955 146.771L144.508 194.549Z" fill="url(#paint0_linear_3003_2)"/>
</g>
<g filter="url(#filter1_d_3003_2)">
<path fill-rule="evenodd" clip-rule="evenodd" d="M344.947 172.754C338.069 189.258 330.199 204.717 322.246 216.982L331.365 236.883C333.122 240.718 332.913 245.165 330.804 248.825L297.314 306.933C299.337 307.373 301.551 307.145 303.654 306.034L337.705 288.036L371.755 306.034C378.642 309.674 386.711 303.83 385.401 296.152L378.885 257.956L406.534 230.86C412.082 225.422 409.005 215.983 401.318 214.86L363.155 209.285L346.135 174.612C345.798 173.925 345.398 173.306 344.947 172.754Z" fill="url(#paint1_linear_3003_2)"/>
</g>
<g filter="url(#filter2_d_3003_2)">
<path fill-rule="evenodd" clip-rule="evenodd" d="M322.245 216.982C353.162 169.307 382.831 73.3439 357.787 55.4729C332.368 38.2019 252.095 98.6288 217.597 143.843L196.032 142.156C191.811 141.826 187.686 143.544 184.955 146.771L126.727 215.552C124.796 217.834 126.685 221.285 129.655 220.9L169.533 215.73C167.024 220.992 165.812 224.975 165.901 227.783C166.013 231.285 169.479 236.675 174.432 242.556C167.75 251.173 164.412 264.537 164.265 268.657C164.039 275.001 176.396 288.724 188.706 297.052C201.016 305.381 217.963 312.574 223.872 310.189C227.755 308.622 239.449 300.76 245.225 291.415C251.928 293.735 257.668 294.907 260.813 293.877C263.485 293.003 266.816 290.52 270.904 286.4L279.788 325.939C280.442 328.849 284.346 329.434 285.837 326.846L330.804 248.825C332.913 245.165 333.122 240.718 331.364 236.883L322.245 216.982Z" fill="white" fill-opacity="0.1"/>
</g>
<mask id="mask0_3003_2" style="mask-type:alpha" maskUnits="userSpaceOnUse" x="125" y="52" width="243" height="277">
<path fill-rule="evenodd" clip-rule="evenodd" d="M322.245 216.982C353.162 169.307 382.831 73.3439 357.787 55.4729C332.368 38.2019 252.095 98.6288 217.597 143.843L196.032 142.156C191.811 141.826 187.686 143.544 184.955 146.771L126.727 215.552C124.796 217.834 126.685 221.285 129.655 220.9L169.533 215.73C167.024 220.992 165.812 224.975 165.901 227.783C166.013 231.285 169.479 236.675 174.432 242.556C167.75 251.173 164.412 264.537 164.265 268.657C164.039 275.001 176.396 288.724 188.706 297.052C201.016 305.381 217.963 312.574 223.872 310.189C227.755 308.622 239.449 300.76 245.225 291.415C251.928 293.735 257.668 294.907 260.813 293.877C263.485 293.003 266.816 290.52 270.904 286.4L279.788 325.939C280.442 328.849 284.346 329.434 285.837 326.846L330.804 248.825C332.913 245.165 333.122 240.718 331.364 236.883L322.245 216.982Z" fill="white"/>
</mask>
<g mask="url(#mask0_3003_2)">
<g filter="url(#filter3_f_3003_2)">
<path fill-rule="evenodd" clip-rule="evenodd" d="M153.751 226.913L172.512 187.969L210.36 207.878C217.249 211.502 225.303 205.653 223.988 197.98L218.663 166.914L261.707 158.772C269.215 157.352 271.974 148.036 266.45 142.756L234.563 112.281C229.287 118.198 224.433 124.038 220.112 129.701L188.658 127.241C184.437 126.911 180.312 128.629 177.581 131.856L107.172 215.027L115.413 231.883L153.751 226.913Z" fill="#2313FF"/>
</g>
<g filter="url(#filter4_f_3003_2)">
<path fill-rule="evenodd" clip-rule="evenodd" d="M380.977 127.133C369.158 155.483 355.636 182.038 341.972 203.108L359.666 241.723C361.424 245.558 361.215 250.004 359.105 253.664L294.747 365.333C288.463 366.889 282.118 361.485 283.291 354.611L296.901 274.831L239.202 218.286C233.654 212.848 236.73 203.409 244.417 202.286L324.109 190.644L359.701 118.137C363.139 111.134 373.123 111.134 376.561 118.137L380.977 127.133Z" fill="#FFB334"/>
</g>
<path opacity="0.396583" fill-rule="evenodd" clip-rule="evenodd" d="M396.122 -1.51208L503.486 74.0699L272.584 405.608L165.22 330.026L396.122 -1.51208Z" fill="#00081B"/>
<g opacity="0.600153" filter="url(#filter5_f_3003_2)">
<path d="M348.494 55.4559C345.456 55.4559 292.322 66.3119 268.917 99.0429C245.512 131.774 231.673 147.508 199.799 147.508C167.925 147.508 129.4 216.166 129.4 216.166C129.4 216.166 173.519 216.953 173.519 230.385C173.519 243.817 171.529 276.128 171.529 280.663" stroke="white" stroke-width="18.7819" stroke-linecap="round"/>
</g>
<path fill-rule="evenodd" clip-rule="evenodd" d="M217.597 143.843L196.032 142.156C191.811 141.826 187.686 143.544 184.955 146.771L126.727 215.552C124.796 217.834 126.685 221.285 129.655 220.9L169.533 215.73C176.077 202.006 191.435 179.588 215.491 146.662C216.172 145.729 216.874 144.789 217.597 143.843Z" fill="white" fill-opacity="0.1"/>
<path fill-rule="evenodd" clip-rule="evenodd" d="M270.904 286.4L279.788 325.939C280.442 328.849 284.346 329.434 285.837 326.846L330.804 248.825C332.913 245.165 333.122 240.718 331.365 236.883L322.245 216.982C321.638 217.918 321.031 218.835 320.423 219.733C297.541 253.548 281.621 275.6 270.904 286.4Z" fill="black" fill-opacity="0.3"/>
</g>
<mask id="mask1_3003_2" style="mask-type:alpha" maskUnits="userSpaceOnUse" x="0" y="4" width="454" height="469">
<path d="M453.592 4.87787H0V472.026H453.592V4.87787Z" fill="white"/>
<path fill-rule="evenodd" clip-rule="evenodd" d="M284.774 289.496C324.511 225.522 362.644 96.7512 330.455 72.7704C297.785 49.5947 194.611 130.681 150.272 191.352L122.554 189.089C117.129 188.646 111.827 190.951 108.317 195.281L33.4778 287.577C30.9959 290.64 33.4238 295.27 37.2411 294.754L88.4956 287.816C85.2709 294.877 83.7131 300.222 83.8275 303.99C83.9715 308.689 88.4263 315.922 94.7923 323.814C86.204 335.377 81.9137 353.31 81.7248 358.838C81.4343 367.351 97.3165 385.766 113.138 396.941C128.96 408.117 150.742 417.769 158.337 414.569C163.327 412.466 178.358 401.917 185.781 389.377C194.397 392.49 201.774 394.063 205.816 392.68C209.251 391.508 213.532 388.176 218.786 382.647L230.205 435.704C231.045 439.609 236.063 440.394 237.979 436.921L295.775 332.226C298.485 327.315 298.754 321.347 296.494 316.201L284.774 289.496Z" fill="black"/>
</mask>
<g mask="url(#mask1_3003_2)">
<path fill-rule="evenodd" clip-rule="evenodd" d="M322.245 216.982C353.162 169.307 382.831 73.3439 357.787 55.4729C332.368 38.2019 252.095 98.6288 217.597 143.843L196.032 142.156C191.811 141.826 187.686 143.544 184.955 146.771L126.727 215.552C124.796 217.834 126.685 221.285 129.655 220.9L169.533 215.73C167.024 220.992 165.812 224.975 165.901 227.783C166.013 231.285 169.479 236.675 174.432 242.556C167.75 251.173 164.412 264.537 164.265 268.657C164.039 275.001 176.396 288.724 188.706 297.052C201.016 305.381 217.963 312.574 223.872 310.189C227.755 308.622 239.449 300.76 245.225 291.415C251.928 293.735 257.668 294.907 260.813 293.877C263.485 293.003 266.816 290.52 270.904 286.4L279.788 325.939C280.442 328.849 284.346 329.434 285.837 326.846L330.804 248.825C332.913 245.165 333.122 240.718 331.364 236.883L322.245 216.982Z" fill="#5FE84A" fill-opacity="0.1"/>
<path d="M357.787 55.4729L359.312 53.6749L359.29 53.6589L359.268 53.6439L357.787 55.4729ZM322.245 216.982L320.163 215.865L319.516 216.863L319.995 217.91L322.245 216.982ZM217.597 143.843L217.322 146.088L218.742 146.199L219.577 145.105L217.597 143.843ZM196.032 142.156L196.307 139.911L196.032 142.156ZM184.955 146.771L183.05 145.415L184.955 146.771ZM126.727 215.552L124.822 214.196L126.727 215.552ZM129.655 220.9L129.384 218.669L129.655 220.9ZM169.533 215.73L171.761 216.588L173.495 212.95L169.263 213.499L169.533 215.73ZM165.901 227.783L163.464 227.915L165.901 227.783ZM174.432 242.556L176.4 243.832L177.474 242.448L176.372 241.14L174.432 242.556ZM164.265 268.657L161.828 268.647L164.265 268.657ZM223.872 310.189L224.794 312.25L223.872 310.189ZM245.225 291.415L246.138 289.302L244.177 288.624L243.116 290.341L245.225 291.415ZM260.813 293.877L261.568 295.999L260.813 293.877ZM270.904 286.4L273.292 285.882L272.344 281.663L269.128 284.904L270.904 286.4ZM279.788 325.939L282.176 325.421L279.788 325.939ZM285.837 326.846L283.692 325.832L285.837 326.846ZM330.804 248.825L328.658 247.811L330.804 248.825ZM331.364 236.883L329.114 237.811L331.364 236.883ZM356.262 57.2699C361.603 61.0819 364.453 69.4819 364.709 81.6519C364.96 93.6449 362.679 108.601 358.628 124.598C350.524 156.593 335.464 192.27 320.163 215.865L324.328 218.098C339.944 194.019 355.176 157.877 363.375 125.504C367.475 109.317 369.848 93.9509 369.585 81.4349C369.326 69.0959 366.493 58.7989 359.312 53.6749L356.262 57.2699ZM219.577 145.105C236.646 122.734 265.133 96.5009 292.498 78.0319C306.184 68.7949 319.462 61.5869 330.791 57.7489C342.278 53.8579 350.982 53.6839 356.306 57.3009L359.268 53.6439C351.883 48.6259 341.02 49.5289 329.229 53.5239C317.279 57.5719 303.567 65.0579 289.695 74.4199C261.944 93.1509 233.045 119.738 215.617 142.58L219.577 145.105ZM217.872 141.598L196.307 139.911L195.757 144.401L217.322 146.088L217.872 141.598ZM196.307 139.911C191.224 139.513 186.287 141.592 183.05 145.415L186.859 148.127C189.086 145.496 192.398 144.138 195.757 144.401L196.307 139.911ZM183.05 145.415L124.822 214.196L128.632 216.908L186.859 148.127L183.05 145.415ZM124.822 214.196C123.178 216.139 123.209 218.533 124.17 220.289C125.134 222.048 127.227 223.481 129.925 223.131L129.384 218.669C129.113 218.704 128.777 218.604 128.536 218.164C128.293 217.719 128.345 217.247 128.632 216.908L124.822 214.196ZM129.925 223.131L169.804 217.961L169.263 213.499L129.384 218.669L129.925 223.131ZM168.339 227.652C168.266 225.383 169.275 221.801 171.761 216.588L167.306 214.871C164.774 220.182 163.357 224.567 163.464 227.915L168.339 227.652ZM176.372 241.14C173.937 238.249 171.914 235.532 170.496 233.149C169.041 230.703 168.378 228.858 168.339 227.652L163.464 227.915C163.537 230.21 164.663 232.812 166.206 235.406C167.787 238.064 169.973 240.981 172.491 243.971L176.372 241.14ZM166.703 268.667C166.766 266.902 167.565 262.757 169.221 257.915C170.869 253.101 173.276 247.862 176.4 243.832L172.463 241.279C168.906 245.866 166.303 251.618 164.574 256.67C162.855 261.695 161.912 266.291 161.828 268.647L166.703 268.667ZM190.183 295.221C184.198 291.172 178.177 285.79 173.699 280.665C171.461 278.103 169.648 275.651 168.421 273.503C167.154 271.285 166.667 269.657 166.703 268.667L161.828 268.647C161.75 270.829 162.722 273.295 164.093 275.695C165.504 278.165 167.508 280.853 169.869 283.556C174.591 288.96 180.904 294.604 187.229 298.883L190.183 295.221ZM222.95 308.129C222.192 308.435 220.646 308.551 218.147 308.102C215.753 307.672 212.862 306.795 209.692 305.559C203.361 303.089 196.205 299.295 190.183 295.221L187.229 298.883C193.517 303.138 200.989 307.105 207.687 309.718C211.032 311.023 214.254 312.018 217.084 312.526C219.81 313.016 222.598 313.136 224.794 312.25L222.95 308.129ZM243.116 290.341C240.419 294.702 236.277 298.806 232.265 302.04C228.217 305.303 224.55 307.483 222.95 308.129L224.794 312.25C227.077 311.328 231.198 308.794 235.412 305.398C239.661 301.973 244.254 297.472 247.334 292.489L243.116 290.341ZM260.058 291.756C259.116 292.064 257.421 292.122 254.862 291.686C252.386 291.264 249.42 290.438 246.138 289.302L244.312 293.528C247.733 294.712 250.988 295.632 253.844 296.118C256.618 296.591 259.364 296.72 261.568 295.999L260.058 291.756ZM269.128 284.904C265.065 288.998 262.096 291.089 260.058 291.756L261.568 295.999C264.874 294.917 268.567 292.042 272.68 287.897L269.128 284.904ZM268.515 286.919L277.399 326.457L282.176 325.421L273.292 285.882L268.515 286.919ZM277.399 326.457C277.927 328.806 279.834 330.348 282.041 330.678C284.275 331.013 286.706 330.075 287.983 327.86L283.692 325.832C283.561 326.059 283.426 326.146 283.338 326.185C283.238 326.23 283.108 326.253 282.956 326.23C282.674 326.188 282.302 325.982 282.176 325.421L277.399 326.457ZM287.983 327.86L332.949 249.839L328.658 247.811L283.692 325.832L287.983 327.86ZM332.949 249.839C335.42 245.552 335.647 240.391 333.614 235.955L329.114 237.811C330.596 241.046 330.406 244.778 328.658 247.811L332.949 249.839ZM333.614 235.955L324.495 216.053L319.995 217.91L329.114 237.811L333.614 235.955Z" fill="url(#paint2_linear_3003_2)"/>
<path d="M285.53 158.188C295.907 165.454 310.201 162.944 317.457 152.581C324.713 142.218 322.183 127.928 311.806 120.662C301.429 113.396 287.135 115.906 279.879 126.269C272.623 136.631 275.153 150.922 285.53 158.188Z" fill="url(#paint3_linear_3003_2)"/>
<path fill-rule="evenodd" clip-rule="evenodd" d="M216.042 254.262C208.63 249.072 206.829 238.856 212.018 231.444L244.512 185.038C249.702 177.626 259.918 175.825 267.33 181.015C274.742 186.205 276.543 196.421 271.353 203.833L238.86 250.238C233.67 257.65 223.454 259.451 216.042 254.262Z" fill="url(#paint4_linear_3003_2)"/>
<g filter="url(#filter6_d_3003_2)">
<path fill-rule="evenodd" clip-rule="evenodd" d="M59.6465 334.219C56.1999 342.475 54.654 351.175 55.0647 360.058L55.4057 367.336C55.4769 368.393 56.6819 369.058 57.7171 368.601L64.8526 365.431C69.3207 363.436 74.824 362.262 81.1502 361.949C81.561 361.936 81.8444 362.092 82.0156 362.224C82.1854 362.354 82.3977 362.602 82.4127 362.98C82.4401 363.318 82.284 363.645 82.0156 363.867C72.9507 371.236 65.8727 382.441 60.9802 397.22C56.8941 409.48 56.5258 421.636 59.8163 433.375L62.2276 441.932C62.5398 443.054 64.1145 443.406 64.9663 442.546L71.4623 435.998C75.9016 431.524 80.5546 428.237 85.2486 426.268C90.9942 423.854 97.1219 422.341 103.476 421.768C107.93 421.376 112.384 421.428 116.752 421.949C127.306 423.228 138.199 422.262 148.214 419.184C158.326 416.067 167.659 410.745 175.235 403.78C181.929 397.623 187.093 390.449 190.596 382.428C193.957 374.693 195.659 366.501 195.617 358.114C195.561 349.714 193.801 341.523 190.341 333.776C186.766 325.74 181.546 318.541 174.809 312.345C168.072 306.149 160.242 301.348 151.518 298.048C143.093 294.866 134.185 293.222 125.05 293.196C115.916 293.145 107.008 294.709 98.6103 297.814C89.8878 301.035 82.0854 305.783 75.3909 311.94C68.469 318.305 63.1642 325.792 59.6465 334.219Z" fill="url(#paint5_radial_3003_2)"/>
</g>
</g>
<defs>
<filter id="filter0_d_3003_2" x="23.4074" y="9.53674e-07" width="254.057" height="246.966" filterUnits="userSpaceOnUse" color-interpolation-filters="sRGB">
<feFlood flood-opacity="0" result="BackgroundImageFix"/>
<feColorMatrix in="SourceAlpha" type="matrix" values="0 0 0 0 0 0 0 0 0 0 0 0 0 0 0 0 0 0 127 0" result="hardAlpha"/>
<feOffset dx="-9.39095" dy="9.39095"/>
<feGaussianBlur stdDeviation="18.7819"/>
<feColorMatrix type="matrix" values="0 0 0 0 0.948824 0 0 0 0 0.823113 0 0 0 0 0.194583 0 0 0 0.573674 0"/>
<feBlend mode="normal" in2="BackgroundImageFix" result="effect1_dropShadow_3003_2"/>
<feBlend mode="normal" in="SourceGraphic" in2="effect1_dropShadow_3003_2" result="shape"/>
</filter>
<filter id="filter1_d_3003_2" x="244.099" y="147.711" width="180.915" height="203.256" filterUnits="userSpaceOnUse" color-interpolation-filters="sRGB">
<feFlood flood-opacity="0" result="BackgroundImageFix"/>
<feColorMatrix in="SourceAlpha" type="matrix" values="0 0 0 0 0 0 0 0 0 0 0 0 0 0 0 0 0 0 127 0" result="hardAlpha"/>
<feOffset dx="-18.7819" dy="9.39095"/>
<feGaussianBlur stdDeviation="17.2167"/>
<feColorMatrix type="matrix" values="0 0 0 0 0.511416 0 0 0 0 0.929725 0 0 0 0 0.0333491 0 0 0 0.165981 0"/>
<feBlend mode="normal" in2="BackgroundImageFix" result="effect1_dropShadow_3003_2"/>
<feBlend mode="normal" in="SourceGraphic" in2="effect1_dropShadow_3003_2" result="shape"/>
</filter>
<filter id="filter2_d_3003_2" x="85.2491" y="30.539" width="335.132" height="369.95" filterUnits="userSpaceOnUse" color-interpolation-filters="sRGB">
<feFlood flood-opacity="0" result="BackgroundImageFix"/>
<feColorMatrix in="SourceAlpha" type="matrix" values="0 0 0 0 0 0 0 0 0 0 0 0 0 0 0 0 0 0 127 0" result="hardAlpha"/>
<feOffset dx="6.26063" dy="25.0425"/>
<feGaussianBlur stdDeviation="23.4774"/>
<feColorMatrix type="matrix" values="0 0 0 0 0.645465 0 0 0 0 0.778827 0 0 0 0 0.458758 0 0 0 0.65281 0"/>
<feBlend mode="normal" in2="BackgroundImageFix" result="effect1_dropShadow_3003_2"/>
<feBlend mode="normal" in="SourceGraphic" in2="effect1_dropShadow_3003_2" result="shape"/>
</filter>
<filter id="filter3_f_3003_2" x="68.8812" y="73.9901" width="238.77" height="196.184" filterUnits="userSpaceOnUse" color-interpolation-filters="sRGB">
<feFlood flood-opacity="0" result="BackgroundImageFix"/>
<feBlend mode="normal" in="SourceGraphic" in2="BackgroundImageFix" result="shape"/>
<feGaussianBlur stdDeviation="19.1454" result="effect1_foregroundBlur_3003_2"/>
</filter>
<filter id="filter4_f_3003_2" x="198.083" y="74.5938" width="221.185" height="329.299" filterUnits="userSpaceOnUse" color-interpolation-filters="sRGB">
<feFlood flood-opacity="0" result="BackgroundImageFix"/>
<feBlend mode="normal" in="SourceGraphic" in2="BackgroundImageFix" result="shape"/>
<feGaussianBlur stdDeviation="19.1454" result="effect1_foregroundBlur_3003_2"/>
</filter>
<filter id="filter5_f_3003_2" x="49.7022" y="-17.7533" width="372.001" height="371.625" filterUnits="userSpaceOnUse" color-interpolation-filters="sRGB">
<feFlood flood-opacity="0" result="BackgroundImageFix"/>
<feBlend mode="normal" in="SourceGraphic" in2="BackgroundImageFix" result="shape"/>
<feGaussianBlur stdDeviation="31.9091" result="effect1_foregroundBlur_3003_2"/>
</filter>
<filter id="filter6_d_3003_2" x="8.04525" y="265.022" width="215.745" height="224.959" filterUnits="userSpaceOnUse" color-interpolation-filters="sRGB">
<feFlood flood-opacity="0" result="BackgroundImageFix"/>
<feColorMatrix in="SourceAlpha" type="matrix" values="0 0 0 0 0 0 0 0 0 0 0 0 0 0 0 0 0 0 127 0" result="hardAlpha"/>
<feOffset dx="-9.39095" dy="9.39095"/>
<feGaussianBlur stdDeviation="18.7819"/>
<feColorMatrix type="matrix" values="0 0 0 0 0.562388 0 0 0 0 1 0 0 0 0 0.0945956 0 0 0 0.630555 0"/>
<feBlend mode="normal" in2="BackgroundImageFix" result="effect1_dropShadow_3003_2"/>
<feBlend mode="normal" in="SourceGraphic" in2="effect1_dropShadow_3003_2" result="shape"/>
</filter>
<linearGradient id="paint0_linear_3003_2" x1="20.985" y1="79.5059" x2="122.328" y2="223.68" gradientUnits="userSpaceOnUse">
<stop stop-color="#CFFF60"/>
<stop offset="1" stop-color="#2F9705"/>
</linearGradient>
<linearGradient id="paint1_linear_3003_2" x1="297.314" y1="172.754" x2="297.314" y2="307.143" gradientUnits="userSpaceOnUse">
<stop stop-color="#FFF264"/>
<stop offset="1" stop-color="#FFB334"/>
</linearGradient>
<linearGradient id="paint2_linear_3003_2" x1="193.176" y1="44.9559" x2="179.683" y2="300.472" gradientUnits="userSpaceOnUse">
<stop stop-color="#FFFDF3" stop-opacity="0.282797"/>
<stop offset="0.382543" stop-color="#F5FEA6" stop-opacity="0.99"/>
<stop offset="0.755261" stop-color="#FFCC8F" stop-opacity="0.536274"/>
<stop offset="1" stop-color="#44FF00" stop-opacity="0.203274"/>
</linearGradient>
<linearGradient id="paint3_linear_3003_2" x1="300.799" y1="149.29" x2="309.986" y2="160.114" gradientUnits="userSpaceOnUse">
<stop stop-color="#F2F3FA"/>
<stop offset="1" stop-color="#FFF6D3"/>
</linearGradient>
<linearGradient id="paint4_linear_3003_2" x1="252.254" y1="191.531" x2="210.867" y2="250.638" gradientUnits="userSpaceOnUse">
<stop stop-color="#C5C6CD"/>
<stop offset="1" stop-color="#565D72"/>
</linearGradient>
<radialGradient id="paint5_radial_3003_2" cx="0" cy="0" r="1" gradientTransform="matrix(96.6785 -113.223 98.2671 70.1968 53.8009 434.513)" gradientUnits="userSpaceOnUse">
<stop stop-color="#FFB855"/>
<stop offset="1" stop-color="#90D800"/>
</radialGradient>
</defs>
</svg>
