<svg width="529" height="507" viewBox="0 0 529 507" fill="none" xmlns="http://www.w3.org/2000/svg">
<path d="M123.296 321.908C130.34 316.76 141.18 211.355 127.63 208.645C122.48 207.56 121.398 214.878 121.398 222.195C121.398 229.78 121.955 248.75 121.398 285.871C121.128 309.986 121.398 322.18 123.296 321.908Z" fill="#65A638"/>
<path d="M142.532 296.436C138.214 297.877 142.844 307.287 144.157 311.881C144.714 313.778 141.848 316.157 144.714 322.453C146.235 325.575 148.148 328.489 150.406 331.126C152.546 332.795 155.823 330.569 153.929 326.788C152.034 323.007 150.406 320.016 149.864 318.661C148.509 315.136 152.571 312.971 150.42 308.906C145.242 299.961 145.52 295.354 142.532 296.436Z" fill="#65A638"/>
<path d="M123.839 143.884C103.28 154.271 120.653 186.137 140.635 172.879C159.115 160.617 141.796 134.814 123.839 143.884Z" fill="#65A638"/>
<path d="M176.682 260.129C181.02 266.901 186.699 301.586 197.271 311.602C186.162 291.291 191.851 250.366 187.517 237.629C183.722 230.857 167.464 225.707 162.045 218.934C157.167 239.245 157.167 246.301 157.167 246.301C157.167 246.301 172.609 251.457 176.682 260.129Z" fill="#65A638"/>
<path d="M119.502 386.398C118.147 391.815 122.674 392.605 123.839 388.835C124.729 385.768 126.524 383.04 128.989 381.01C131.454 378.98 134.475 377.741 137.656 377.456C145.244 376.643 151.746 382.063 154.186 384.77C156.896 387.48 160.146 385.586 157.708 381.791C154.459 376.643 145.516 369.599 137.929 371.496C131.154 331.937 65.7252 351.024 81.2978 387.213C82.8309 390.775 86.4451 387.213 85.36 383.418C76.1478 357.137 126.004 340.877 132.239 372.311C129.239 373.622 126.551 375.556 124.355 377.985C122.159 380.413 120.505 383.281 119.502 386.398Z" fill="#65A638"/>
<path d="M144.7 78.3036C140.908 63.1317 134.406 53.1042 130.068 41.7246C127.088 34.1372 125.733 15.4401 122.753 15.1702C119.231 14.892 118.958 36.0375 115.439 42.537C109.204 53.6468 103.786 70.4464 100.804 80.2011C103.786 83.1893 136.843 85.3568 144.7 78.3036Z" fill="#65A638"/>
<path d="M46.8831 380.436C46.8831 380.436 27.6434 397.506 26.0157 399.676C24.3881 401.846 26.8282 410.786 27.9133 413.223C29.2683 415.663 75.8747 447.635 75.8747 447.635C73.6639 450.117 71.3117 452.47 68.8299 454.682C68.0175 454.961 45.2554 440.59 45.2554 440.59C45.2554 440.59 46.296 456.338 48.2353 459.017C49.8267 461.21 90.5069 484.759 109.201 491.804C111.174 492.547 113.283 492.858 115.387 492.718C117.49 492.578 119.539 491.989 121.396 490.991C144.971 478.254 186.97 452.242 188.594 449.257C190.492 446.004 192.932 424.87 192.932 424.87C154.208 442.938 152.449 453.297 138.276 439.41C133.366 434.6 110.798 414.113 110.798 414.113L46.8831 380.436Z" fill="#65A638"/>
<path d="M190.224 382.876C189.412 383.282 145.526 400.886 123.588 409.681C128.935 416.08 141.673 430.715 149.85 431.92C158.792 433.005 204.584 409.7 205.939 405.093C207.288 400.772 195.371 389.643 190.224 382.876Z" fill="#65A638"/>
<path d="M221.115 362.012C225.45 345.482 206.752 333.017 189.953 337.625C189.953 328.683 182.908 324.618 176.136 324.348C164.484 323.791 160.958 333.56 163.941 336.27C165.296 337.352 166.378 336.812 167.194 335.185C171.528 324.612 188.061 330.58 183.993 339.792C179.658 341.417 174.778 346.025 173.977 349.274C173.164 352.8 175.332 353.612 177.772 351.172C187.527 342.502 194.299 340.599 202.971 342.502C206.987 343.238 210.549 345.531 212.884 348.88C215.218 352.229 216.135 356.365 215.436 360.387C207.306 359.029 201.616 363.909 203.514 366.889C204.866 369.326 213.808 362.824 219.771 367.702C222.208 369.599 223.023 373.122 221.666 377.996C220.308 382.871 225.461 383.413 226.546 379.348C227.879 373.664 228.157 364.992 221.115 362.012Z" fill="#65A638"/>
<path d="M95.9265 318.658C94.2051 326.217 91.4714 333.508 87.7993 340.335C85.0894 344.94 89.0848 346.787 91.3217 343.858C95.6846 337.578 98.9805 330.622 101.077 323.269C103.514 314.056 102.974 312.974 100.52 309.722C99.1651 307.824 105.667 296.714 101.605 295.632C99.9775 295.354 98.3526 295.354 97.8101 297.799C97.2675 303.489 91.6695 308.842 95.1001 313.787C95.6951 314.431 96.09 315.235 96.2367 316.1C96.3834 316.965 96.2756 317.854 95.9265 318.658Z" fill="#65A638"/>
<path d="M478.801 277.471C478.244 271.239 472.298 259.586 464.981 251.187C453.141 256.034 440.902 259.842 428.402 262.566C418.647 271.239 397.518 297.793 389.653 276.928C367.433 300.503 359.306 291.831 351.449 265.276C332.479 281.533 334.376 248.749 332.479 234.93C326.519 227.612 322.463 221.652 322.463 221.652C278.024 237.637 304.038 244.954 307.558 273.682L315.148 258.779C315.148 258.779 311.895 315.411 314.591 339.528C348.463 362.017 432.189 367.437 447.093 355.785L430.294 328.415C430.299 327.875 446.568 293.186 478.801 277.471Z" fill="#65A638"/>
<path d="M89.1542 245.766C89.1542 245.766 89.1542 238.451 84.2768 218.399C78.8569 225.444 62.5998 230.594 58.8048 237.096C56.3675 241.431 57.4498 240.076 56.9072 262.296C57.7197 277.198 53.9274 295.625 49.5925 311.339C64.7673 288.037 63.4123 249.018 89.1542 245.766Z" fill="#65A638"/>
<path d="M26.2907 357.134C26.6043 360.215 27.624 363.181 29.2706 365.804C30.8954 367.431 33.6054 365.804 32.5231 362.012C27.1032 344.127 43.082 324.884 61.7846 344.127C64.4557 346.876 66.662 344.405 65.3098 340.874C62.5999 334.372 64.2609 329.87 68.2897 328.41C74.5805 326.131 78.8903 333.078 81.8367 331.392C82.1441 331.159 82.398 330.862 82.5813 330.523C82.7646 330.183 82.8731 329.808 82.8995 329.423C82.9258 329.038 82.8695 328.652 82.7341 328.29C82.5988 327.929 82.3877 327.6 82.115 327.327C80.414 325.244 78.1495 323.695 75.5919 322.865C73.0343 322.034 70.2917 321.957 67.6915 322.643C65.0913 323.329 62.7435 324.749 60.9284 326.733C59.1133 328.717 57.9077 331.181 57.4554 333.832C43.9083 325.43 26.0153 336.539 26.0153 351.444C11.3831 353.612 11.1132 367.701 16.2605 373.664C18.9705 376.914 22.7655 375.559 20.5981 371.766C17.3484 364.452 19.2431 358.216 26.2907 357.134Z" fill="#65A638"/>
<path d="M118.147 170.168C133.594 172.605 139.824 160.683 137.929 150.389C136.031 140.904 127.078 133.316 114.354 138.736C100.805 144.969 103.787 167.728 118.147 170.168ZM110.289 150.389C117.604 129.799 146.599 150.389 128.444 163.936C119.774 170.711 107.04 160.141 110.289 150.389Z" fill="#001434"/>
<path d="M524.051 315.947C523.773 315.669 523.773 315.405 523.509 315.132C530.554 299.148 521.342 285.055 503.999 288.308C499.665 280.45 492.077 264.463 487.47 256.868C498.852 254.158 508.337 241.693 506.439 230.583C526.75 224.081 530.826 190.482 518.089 176.392C531.909 149.568 520.529 130.055 499.934 123.553C494.245 92.9478 471.213 80.1993 449.536 82.0968C420.814 40.3621 364.453 49.0374 359.575 89.954C335.731 88.0565 316.221 110.821 320.286 133.308C302.944 136.561 294.002 162.302 303.487 176.392C294.814 186.147 299.692 206.997 310.531 214.326C294.544 221.101 271.242 233.836 266.092 236.815C255.798 224.893 231.681 231.398 235.209 250.905C235.189 251.217 235.107 251.521 234.967 251.801C234.827 252.081 234.633 252.329 234.396 252.533C199.442 280.982 240.899 349.265 294.82 319.461C294.007 324.608 292.655 331.114 297.53 334.636C295.635 359.835 291.84 392.892 294.55 411.046C254.448 444.916 335.467 457.11 366.89 447.086C372.58 464.155 426.231 466.595 449.525 457.937C473.911 448.994 482.311 444.929 481.772 428.672C480.956 405.913 479.874 392.093 479.601 373.669C509.419 373.391 540.581 341.416 524.051 315.947ZM307.822 197.535C305.924 192.115 304.029 184.8 309.177 180.465C313.784 175.858 300.507 166.646 308.364 151.471C309.989 148.218 313.784 140.361 322.996 140.091C331.396 139.813 320.829 121.937 334.376 107.844C337.575 104.029 341.688 101.085 346.33 99.2848C350.973 97.485 355.995 96.8881 360.93 97.5497C366.35 98.1062 366.35 91.8599 366.893 89.4198C372.04 57.9797 417.022 50.6734 441.678 83.9999C430.827 88.8801 431.662 95.1097 435.176 94.8509C438.699 94.2944 439.241 91.871 448.723 89.431C458.478 86.721 470.67 91.0558 479.607 99.7255C494.512 114.628 493.699 137.12 493.699 137.12C493.421 141.994 501.556 143.622 500.741 131.157C517.271 137.66 521.33 158.524 510.226 174.511C509.744 175.284 509.561 176.205 509.71 177.104C509.86 178.002 510.332 178.814 511.039 179.389C516.731 183.996 519.53 195.604 517.271 205.943C516.094 211.343 513.479 221.118 502.096 224.098C501.014 224.376 499.116 225.453 499.389 228.975C500.471 242.522 489.373 254.174 473.105 248.757C488.819 237.105 504.267 209.195 484.214 197.813C475.272 192.666 472.835 180.744 483.402 164.484C489.634 154.467 464.162 163.401 454.95 139.287C451.7 132.512 426.228 147.684 413.215 125.467C412.768 124.691 412.058 124.101 411.214 123.803C410.369 123.505 409.446 123.519 408.611 123.843C383.411 132.782 376.077 114.104 375.821 113.27C371.648 99.8229 303.559 146.379 315.94 208.92C312.052 206.125 309.198 202.122 307.822 197.535ZM376.375 253.354C333.021 241.701 315.679 215.959 324.624 177.213C344.406 193.47 363.913 188.064 370.96 175.045C378.548 160.956 375.835 141.174 347.113 135.214C353.888 128.44 361.888 123.015 370.688 119.227C374.483 125.729 385.32 138.736 408.625 131.691C419.732 147.676 440.065 146.594 449.803 144.969C452.195 149.912 455.644 154.269 459.905 157.734C464.166 161.198 469.135 163.685 474.462 165.018C465.79 181.818 469.042 196.18 480.422 203.767C486.385 207.832 489.907 210.812 485.572 221.109C469.318 259.313 417.834 264.463 376.375 253.354ZM419.189 265.818C411.059 272.863 403.472 282.618 399.137 281.805C394.802 280.993 392.362 270.696 389.925 263.651C399.553 265.578 409.382 266.31 419.189 265.829V265.818ZM369.06 259.043C373.227 260.413 377.481 261.5 381.795 262.296C383.053 266.372 384.593 270.355 386.402 274.218C378.815 280.178 368.788 288.85 365.535 286.413C362.555 284.243 359.03 275.031 356.323 267.173C360.797 264.839 365.059 262.119 369.06 259.043ZM342.23 265.551C338.981 264.736 337.353 252.001 336.001 242.247C343.42 248.154 351.746 252.821 360.658 256.066C354.428 260.128 345.486 266.361 342.23 265.551ZM335.458 175.318C345.913 168.882 355.714 161.441 364.723 153.101C374.472 172.594 353.796 186.317 335.461 175.315L335.458 175.318ZM318.928 218.945C321.074 224.364 324.096 229.394 327.874 233.833C329.498 243.318 330.311 282.607 349.281 270.415C352.53 278.272 359.019 294.935 365.808 295.071C367.705 295.11 372.583 293.444 389.382 280.709C398.594 300.219 417.292 275.832 431.117 264.722C443.322 263.464 455.133 259.681 465.798 253.615C470.006 255.759 474.629 256.961 479.348 257.137C481.246 260.117 484.226 265.537 487.205 271.227C462.818 273.937 438.974 293.986 428.949 319.728C419.464 304.556 417.027 295.884 414.317 302.116C411.877 307.264 416.755 313.226 421.905 322.168C427.594 331.923 434.639 343.845 441.141 352.788C411.065 360.915 345.491 360.375 301.055 326.233C304.847 293.174 314.059 261.472 315.684 254.425C317.312 247.11 309.994 250.363 308.912 255.24C308.1 258.49 307.827 259.575 304.847 270.142C299.697 256.595 291.84 241.69 285.338 234.103C296.172 228.967 310.262 222.194 318.931 218.942L318.928 218.945ZM296.169 309.718C291.292 315.135 258.232 325.975 243.6 310.53C250.915 306.195 257.42 303.755 255.522 300.235C253.625 296.716 252.27 298.88 238.45 304.843C234.549 299.733 231.862 293.803 230.593 287.501C243.873 280.996 247.393 280.726 246.31 278.016C245.228 275.306 241.703 275.036 229.511 279.913C228.698 267.719 233.576 261.759 238.993 257.967C245.768 253.359 238.993 243.877 246.04 239.812C255.253 234.392 259.573 242.898 265.55 243.604C268.254 243.924 272.052 242.792 278.827 238.184C285.599 245.229 297.794 268.261 301.586 284.248C299.338 292.637 297.531 301.137 296.172 309.715L296.169 309.718ZM367.43 439.779C332.476 449.264 293.187 435.714 291.292 430.297C289.122 426.502 295.354 420.542 299.961 416.208C308.089 421.897 344.67 433.277 371.495 427.587C371.831 428.741 372.489 429.775 373.392 430.567C370.798 433.198 368.77 436.332 367.432 439.777L367.43 439.779ZM370.412 420.542C347.49 423.899 324.092 420.015 303.484 409.433C297.252 405.91 304.026 354.969 304.566 338.712C350.36 364.454 402.114 370.953 446.553 359.301C449.617 363.3 453.498 366.6 457.936 368.983C462.374 371.365 467.269 372.776 472.295 373.121C473.38 393.17 475.005 405.908 473.65 427.854C443.301 440.046 386.399 430.834 379.082 424.875C375.463 408.046 374.822 390.713 377.187 373.663C377.187 372.036 376.645 369.326 374.747 369.056C364.995 367.431 369.873 413.492 370.415 420.54L370.412 420.542ZM447.365 450.889C410.244 462.541 377.187 450.889 374.191 445.742C373.378 444.387 373.912 441.134 379.881 433.82C400.47 441.677 450.062 446.554 476.073 435.175C473.11 442.759 454.143 448.719 447.368 450.886L447.365 450.889ZM508.604 354.696C503.398 358.961 497.418 362.181 490.992 364.181C485.845 354.165 482.526 346.781 479.882 349.819C477.1 353.013 478.797 353.884 483.405 365.806C456.038 370.414 446.553 348.737 433.818 328.954C441.403 301.858 466.063 280.181 490.719 279.098C492.93 284.185 495.559 289.079 498.579 293.73C499.634 294.755 500.948 295.473 502.38 295.807C503.811 296.142 505.307 296.08 506.707 295.628C508.62 295.122 510.64 295.186 512.519 295.811C514.397 296.437 516.051 297.598 517.279 299.15C518.203 300.807 518.688 302.672 518.688 304.569C518.688 306.466 518.203 308.331 517.279 309.987C512.402 320.56 524.597 323.535 520.262 337.897C519.054 342.106 516.924 345.993 514.027 349.276C506.17 340.064 503.732 332.477 501.022 337.627C498.852 341.959 503.46 345.481 508.612 354.694L508.604 354.696Z" fill="#001434"/>
<path d="M380.983 141.182C384.236 139.288 382.608 132.783 373.396 129.53C366.351 127.093 358.764 128.448 359.033 132.783C359.312 138.203 366.621 132.783 376.376 140.37C376.892 141.072 377.659 141.548 378.517 141.699C379.375 141.85 380.258 141.665 380.983 141.182Z" fill="#001434"/>
<path d="M379.358 172.879C371.498 175.317 369.342 188.054 373.938 189.949C374.422 190.101 374.934 190.141 375.435 190.066C375.936 189.991 376.414 189.803 376.832 189.515C377.25 189.228 377.597 188.85 377.846 188.408C378.096 187.967 378.242 187.475 378.273 186.969C377.925 183.997 377.995 181.006 381.253 179.924C385.318 178.839 388.57 180.202 392.104 184.259C392.425 184.657 392.827 184.984 393.283 185.216C393.739 185.449 394.239 185.583 394.75 185.609C395.262 185.635 395.773 185.553 396.25 185.369C396.728 185.184 397.161 184.901 397.521 184.537C401.772 180.394 390.195 169.627 379.358 172.879Z" fill="#001434"/>
<path d="M428.67 157.977C433.439 159.089 437.948 161.112 441.948 163.937C446.013 167.189 452.242 163.937 447.368 158.247C442.481 153.218 435.933 150.137 428.943 149.577C424.063 149.305 423.25 156.892 428.67 157.977Z" fill="#001434"/>
<path d="M389.925 208.377C385.066 209.097 380.121 209.003 375.293 208.099C361.203 205.391 376.917 235.195 388.84 233.298C398.867 231.679 401.574 205.937 389.925 208.377Z" fill="#001434"/>
<path d="M449.266 173.69C425.149 153.379 394.26 172.335 403.202 197.535C407.537 209.457 425.964 219.754 438.969 217.317C458.478 214.334 466.066 187.78 449.266 173.69ZM437.614 210.269C431.924 211.354 422.982 207.832 416.746 202.682C427.14 196.232 437.017 188.984 446.289 181.005C456.862 189.677 450.078 208.102 437.614 210.269Z" fill="#001434"/>
<path d="M121.129 185.343C164.753 185.343 162.864 121.395 120.851 122.207C80.2124 123.02 81.8373 185.343 121.129 185.343ZM102.432 136.57C117.064 117.872 150.393 132.235 147.681 154.994C142.263 200.245 73.7101 173.691 102.432 136.57Z" fill="#001434"/>
<path d="M41.464 321.637C56.099 326.244 64.7686 282.891 69.1035 272.863C72.356 259.856 74.5234 256.606 86.4456 250.913C88.8829 258.231 85.0906 271.781 94.3029 276.385C88.3404 291.56 98.9104 291.83 110.833 293.185C112.73 316.217 114.625 325.429 122.212 325.429C129.8 325.429 131.155 314.05 133.063 293.455C143.636 292.373 161.242 291.018 151.758 276.655C160.7 272.32 157.177 258.773 159.345 251.456C170.997 257.149 172.622 260.398 175.875 273.133C180.752 285.328 186.984 318.657 200.531 322.449C201.443 322.473 202.347 322.287 203.175 321.906C204.003 321.526 204.733 320.961 205.309 320.254C205.885 319.548 206.291 318.719 206.496 317.831C206.702 316.943 206.701 316.02 206.494 315.132C201.347 294.543 201.347 260.671 201.886 243.871C202.429 217.587 182.377 219.212 167.747 206.477C191.589 136.299 170.997 76.4153 133.333 34.4136C126.016 27.9113 130.353 0.271828 121.953 0.00194404C113.554 -0.26794 119.243 27.6414 111.937 34.4136C72.6259 79.9377 54.2014 136.569 77.5033 206.207C62.8711 218.942 42.2792 217.317 42.8218 243.871C43.6342 260.671 43.6342 294.54 38.2143 315.132C37.9412 316.424 38.1137 317.77 38.7039 318.952C39.294 320.133 40.267 321.079 41.464 321.637ZM98.0979 284.785C98.8931 282.689 99.4384 280.507 99.7228 278.283C103.027 279.02 106.371 279.563 109.739 279.908C110.017 282.348 110.017 285.055 110.296 287.495C106.162 286.928 102.082 286.022 98.0979 284.785ZM121.942 317.302C116.253 294.81 114.082 229.779 114.082 211.624C116.522 207.02 126.004 205.935 128.445 211.624C131.722 219.818 125.629 308.543 121.942 317.302ZM133.322 287.495C133.653 284.979 133.839 282.446 133.878 279.908C138.213 279.63 142.278 278.826 145.801 278.283C146.376 280.445 147.194 282.536 148.238 284.515C143.36 285.933 138.37 286.93 133.322 287.495ZM178.301 221.922C186.973 227.342 195.373 228.967 194.561 243.599C193.748 259.043 193.748 288.85 197.813 310.527C189.141 295.625 183.993 272.321 178.573 257.961C175.321 251.186 165.296 246.036 160.419 243.871C162.316 232.219 164.211 222.726 166.109 214.607C170.444 217.317 174.236 219.484 178.301 221.922ZM114.898 43.086C118.147 39.2909 121.13 35.4987 122.212 22.7752C122.212 22.2187 123.025 22.2187 123.297 22.7752C124.652 35.2371 127.632 39.0322 130.069 42.2847C136.032 50.6845 143.619 57.7293 151.746 73.4466C138.742 82.119 108.123 83.2014 94.3029 73.4466C100.374 62.8101 107.259 52.6596 114.898 43.086ZM91.323 78.3017C107.04 88.8745 139.012 88.0565 154.459 78.3017C156.931 82.9853 159.19 87.7775 161.231 92.664C145.244 108.109 100.535 107.566 84.8208 91.5789C86.9882 87.2524 89.1556 82.6449 91.323 78.3017ZM74.5234 138.194C74.6989 124.286 77.3599 110.521 82.3807 97.5497C100.535 113.537 144.983 114.077 163.399 98.3622C175.863 127.626 169.815 171.606 162.586 196.992C155.969 220.181 151.613 243.957 149.579 267.986C146.872 271.508 140.637 270.696 134.407 272.051C135.759 253.626 138.094 213.85 134.947 207.832C129.335 197.092 111.918 198.077 107.04 208.389C105.955 210.556 105.413 217.058 108.935 271.792C103.515 270.71 98.0979 271.252 95.6578 267.727C90.5106 204.31 75.6057 196.722 74.5234 138.194ZM50.1365 243.329C49.324 223.277 68.0212 223.816 79.4008 213.8C81.2983 222.2 83.463 231.412 85.0906 243.334C80.2132 245.502 69.646 250.919 66.3935 257.694C60.7037 272.056 55.8207 295.358 47.1566 310.263C50.9489 288.85 50.9489 259.043 50.1365 243.329Z" fill="#001434"/>
<path d="M110.831 432.189C110.831 436.253 112.456 477.983 112.456 483.402C112.456 490.99 118.146 490.447 118.146 486.652C118.146 480.15 117.064 443.571 116.791 436.796C116.521 429.751 110.831 428.396 110.831 432.189Z" fill="#001434"/>
<path d="M185.348 375.289C184.52 374.838 183.567 374.674 182.635 374.821C181.704 374.968 180.848 375.418 180.198 376.101C177.218 378.539 183.178 380.436 185.618 381.791C146.059 398.321 115.98 409.97 112.187 410.243C106.768 409.431 62.3285 386.399 48.5088 377.999C52.5737 374.746 65.3111 370.951 61.5161 367.983C59.3486 366.358 57.7349 366.953 55.5563 367.443C47.4682 369.262 25.4796 382.075 15.9947 389.12C7.11634 395.63 -5.32058 406.003 2.44484 413.777C10.5747 420.821 24.1218 431.389 31.7092 436.539C31.7092 441.686 32.3881 456.043 32.5244 461.735C32.5985 463.286 33.279 464.746 34.4191 465.8C47.969 477.995 105.682 508.614 116.252 505.904C130.069 502.382 183.451 473.118 200.25 458.216C205.398 453.608 202.69 438.164 203.23 422.719C218.405 412.146 226.154 407.541 226.262 403.209C226.398 397.773 207.025 385.314 185.348 375.289ZM33.0642 428.125C27.9169 424.333 8.85807 412.708 7.5949 408.076C6.42076 403.763 23.0395 391.546 41.1941 382.064C50.9488 388.836 88.8829 408.346 104.87 415.12C68.0211 447.635 73.1823 450.617 67.4785 450.075C63.6835 450.347 39.5692 432.732 33.0642 428.125ZM196.995 450.075C184.803 463.624 171.796 469.042 154.996 479.066C142.261 486.114 123.834 497.766 115.165 498.306C103.785 499.118 61.2434 474.462 43.1027 462.809C42.2928 462.273 41.6237 461.55 41.1521 460.701C40.6804 459.853 40.42 458.903 40.3928 457.932C40.1145 453.597 39.8363 446.552 39.8363 441.132C88.6102 474.731 59.076 455.225 112.455 418.913C160.416 461.724 126.274 460.647 196.455 426.5C196.717 433.005 197.273 443.842 196.995 450.075ZM201.333 414.848C199.127 416.438 196.766 417.8 194.285 418.913C162.809 433.703 153.914 442.487 148.494 443.03C142.531 443.572 141.179 434.63 120.042 415.933C134.944 411.055 166.106 398.591 192.382 387.481C202.398 391.546 216.226 399.946 216.496 403.198C216.507 405.366 206.753 411.325 201.335 414.848H201.333Z" fill="#001434"/>
</svg>
