<svg width="147" height="137" viewBox="0 0 147 137" fill="none" xmlns="http://www.w3.org/2000/svg">
<path d="M131.14 68.4558C131.14 100.212 105.396 135.456 73.6398 135.456C41.8834 135.456 -15.3603 140.956 8.63974 73.9558C8.63974 42.1994 41.8834 10.9558 73.6398 10.9558C105.396 10.9558 131.14 36.6994 131.14 68.4558Z" fill="white"/>
<path d="M5.87346 133.203C8.87502 135.452 21.0311 136.129 53.8275 136.06C47.216 134.879 48.4643 133.281 48.0058 119.489C46.7705 120.008 40.6192 122.354 40.6192 122.354C40.3783 129.509 40.965 133.299 36.8364 132.668C34.3991 132.299 24.4472 119.797 21.6788 115.923C11.9152 102.258 13.7804 101.367 14.2775 100.758C14.8565 100.051 22.5071 94.5675 28.291 91.0016C30.9158 88.7976 39.6951 76.4385 39.6951 76.4385C40.8608 74.6027 40.6277 71.6768 37.4161 68.608C36.536 69.4426 34.8353 70.7967 33.7105 71.7895C34.6886 75.8595 33.2473 77.7926 30.9313 78.7931C29.1634 79.5528 28.538 79.1791 27.2905 77.9208C16.7966 84.8186 8.99391 74.4151 9.62078 65.9377C10.0647 59.9345 17.8419 51.5173 17.9029 51.4726C21.3395 48.1542 24.9658 45.038 28.7635 42.1398C35.9254 36.9341 49.7428 41.5152 51.3153 41.824C52.4888 36.1181 57.1448 34.7285 58.055 32.6603C60.2282 27.7194 64.5159 22.6334 70.4735 20.4216C75.8775 18.4144 83.3892 18.0601 91.8148 21.0609C97.6142 23.1298 106.16 28.8543 108.273 33.7365C109.296 36.098 110.598 40.0924 112.905 42.5373C115.343 45.1251 122.075 56.6867 117.05 59.5678C115.365 60.5305 114.026 58.6198 112.996 59.3648C110.731 61.0115 115.395 67.1204 112.206 69.3391C110.521 70.5126 108.64 68.4212 107.557 69.2619C106.474 70.1026 108.638 75.6109 102.367 76.4238C102.863 77.1302 103.911 78.966 104.297 79.6199C99.6175 82.8848 95.2642 86.4661 85.7314 92.8444C85.2359 94.6462 84.3355 96.311 83.0989 97.7119C82.5508 118.758 83.0912 110.836 79.9398 124.92C86.3714 129.501 88.9059 131.757 84.5356 135.865C107.057 135.36 131.121 136.112 137.952 135.526C148.167 134.653 147.354 125.205 145.631 58.1218C145.203 41.1593 103.281 16.2528 91.6141 6.29391C79.9468 -3.66498 67.1268 -1.41535 53.6545 10.2891C42.5971 19.9059 1.17966 47.1408 0.705645 59.9438C-0.700953 97.5699 -0.483247 128.442 5.87346 133.203Z" fill="#F9DC6B"/>
<path d="M124.047 116.87C131.194 122.038 133.684 124.099 135.918 125.748C137.204 126.704 139.386 125.952 134.398 122.01C114.314 106.432 93.6203 94.5836 86.3989 93.553C92.3341 88.5581 100.902 83.6311 110.598 76.7857C118.873 70.9486 124.078 65.2998 133.504 63.6369C134.739 63.4192 135.136 61.9748 133.894 61.7416C124.013 62.1276 115.352 71.9414 104.377 78.3807C104.084 77.899 103.759 77.3956 103.407 76.8838C109.695 76.1542 106.401 68.7777 109.048 70.0608C118.752 72.9118 110.38 58.6798 114.051 59.9591C115.6 61.0491 118.88 60.169 119.234 57.1304C120.189 48.9008 112.463 42.7248 110.071 36.5271C108.146 32.0062 106.273 27.0623 93.462 21.3695C77.158 14.1242 65.3818 18.0367 58.3557 30.148C56.2945 34.5407 52.2175 35.481 50.6835 40.6867C31.4034 34.4427 24.3851 42.8753 12.429 57.5743C11.6556 56.9226 10.7415 56.4591 9.75867 56.2202C9.51077 56.1878 9.2599 56.2522 9.05828 56.4C8.85666 56.5478 8.71982 56.7678 8.67625 57.0139C8.63269 57.2601 8.68574 57.5136 8.82438 57.7217C8.96301 57.9298 9.17654 58.0764 9.42053 58.1309C10.1475 58.3348 10.8172 58.7048 11.3768 59.2118C3.13176 69.3745 15.6939 86.5848 27.3573 79.0029C31.1788 82.3226 36.1737 77.882 34.7292 72.4131C35.7599 71.4959 36.6245 70.7208 37.422 69.938C40.4683 72.9249 39.5589 74.0227 38.4001 75.911C36.5651 78.8972 29.4487 88.3674 27.064 90.414C20.2788 94.8669 16.811 96.7629 12.9671 100.75C12.5387 101.284 11.2448 102.337 18.4885 113.034C15.7269 115.135 13.3975 117.751 11.6285 120.736C10.7793 122.316 12.2461 123.662 13.4713 121.752C15.1334 119.149 17.7173 116.223 19.8017 114.944C26.7143 124.58 41.631 146.613 41.3407 123.332C43.1233 122.594 45.5381 121.616 47.0497 120.962C47.7646 134.394 43.0028 136.623 62.6512 136.277C68.1325 136.3 77.974 136.022 84.3446 135.938C86.0824 135.916 87.2628 134.337 87.5338 132.773C87.97 130.201 86.8567 129.072 81.0118 124.83C83.2993 114.494 84.1771 114.961 84.059 97.5242C84.5417 96.848 84.9241 96.1056 85.1946 95.3201C89.0014 95.0653 104.309 102.595 124.047 116.87ZM86.5495 91.0308C87.8804 86.3818 89.3024 81.1839 92.0106 75.7829C93.9267 74.8431 95.6791 73.6013 97.2008 72.105C99.2416 74.4257 101.107 76.8947 102.782 79.4916C96.2304 84.0526 90.1146 88.4006 86.5495 91.0331V91.0308ZM57.2502 41.6872C60.4471 38.4 63.3491 40.0243 65.8967 37.9414C78.7977 27.3495 82.017 35.6771 91.1792 44.2719C88.6215 44.5421 87.5608 46.7238 89.2005 46.95C90.2466 47.0997 90.6982 45.5426 93.9623 46.4983C96.1653 48.1525 98.4558 49.6869 100.824 51.0949C107.895 59.3021 94.2811 78.1151 82.6655 75.234C68.7223 71.7746 55.5503 63.447 54.6022 51.7071C54.1661 46.3586 55.2268 43.7708 57.2502 41.6872ZM64.3434 69.4686C69.3762 73.0673 75.0928 75.5966 81.1408 76.9008C80.3734 78.7358 79.4478 80.9021 78.6958 82.7225C74.9346 81.1259 64.8483 76.3349 61.9965 74.3416C62.7561 72.7064 63.5385 71.082 64.3434 69.4686ZM58.4407 77.4975C56.3315 82.4777 54.8524 85.6036 52.6553 85.7796C51.2865 85.8846 48.21 85.1404 47.6079 82.47C47.1447 80.401 55.7549 68.0196 57.7104 63.4462C59.237 65.2165 60.9327 66.8338 62.7732 68.2751C61.0184 71.7461 59.5416 74.8958 58.4407 77.4975ZM33.3458 71.0736C32.9397 71.3824 32.5337 71.8333 32.722 72.3822C34.0452 76.2036 30.9912 80.1301 28.4034 77.2042C26.5382 75.6246 23.2132 81.2186 17.647 78.1144C18.2646 76.6854 21.3249 75.2186 20.0843 73.646C18.331 72.874 17.1352 76.0909 15.9841 77.0992C14.6009 76.0697 13.4268 74.7858 12.5248 73.3163C13.3593 72.339 14.5783 70.9548 15.375 70.0145C15.5408 69.8177 15.622 69.5633 15.6009 69.3068C15.5797 69.0504 15.458 68.8127 15.2623 68.6457C13.6527 67.7502 12.7046 70.6158 11.5466 71.4813C8.50725 64.0036 13.7801 58.5115 20.295 51.1775C24.7858 53.5244 34.4367 63.8893 36.2949 68.3654C35.4349 69.2031 34.4953 70.0461 33.3443 71.0767L33.3458 71.0736ZM21.7225 49.7585C23.8518 47.7059 26.0971 45.7771 28.4474 43.9816C32.8332 48.961 40.1372 56.8216 41.9498 62.5993C42.5821 63.9225 39.2648 65.8039 37.7903 66.9998C35.2805 61.9802 26.6193 52.6921 21.7225 49.7585ZM38.851 68.6318C40.957 66.8639 44.7252 65.2018 43.8003 62.0419C41.8819 55.9045 34.5084 47.9227 30.0308 42.8452C36.342 38.3621 45.64 40.7314 50.3184 42.6051C49.1225 49.2243 53.5307 56.2804 56.3663 61.7339C54.6285 65.773 50.0026 73.0554 47.7461 77.2675C45.4345 76.5061 43.2916 75.3058 41.4349 73.7324C41.5661 72.3027 40.957 70.7154 38.851 68.6318ZM37.835 131.51C32.2689 132.007 15.2832 105.461 14.5837 101.865C15.0421 101.346 15.5403 100.863 16.0737 100.421C22.3771 108.507 33.8862 116.218 39.4076 122.963C39.3621 130.443 39.0309 130.931 37.835 131.51ZM85.6223 132.451C84.9529 134.956 80.7409 134.429 74.7679 134.466C65.4266 134.534 51.2378 135.474 49.6583 133.045C49.3264 132.466 49.1528 131.809 49.155 131.142C57.918 130.382 72.2256 126.245 79.5898 126.201C85.647 130.592 85.9705 131.164 85.6238 132.451H85.6223ZM79.1606 124.244C71.5648 124.477 57.9003 128.373 49.0585 129.201C48.9604 126.252 49.0137 122.928 48.9813 120.107C53.8928 117.791 55.4129 116.203 60.0086 108.921C61.9116 105.904 63.3784 103.911 62.6334 103.408C61.2871 102.497 60.1067 105.138 58.4067 107.823C55.1064 113.044 54.2695 115.029 50.8889 117.042C48.8292 118.269 45.8253 119.506 40.744 121.49C35.0049 114.714 23.9319 107.244 17.5837 99.2025C19.9384 97.3744 23.6316 94.907 28.2729 91.958C31.5223 89.0243 38.7367 79.3812 40.7972 75.6956C42.6085 77.1356 44.6544 78.2526 46.8451 78.9975C43.8142 84.6394 49.771 88.318 54.4656 87.5274C56.4435 87.1962 59.2273 80.5246 61.1906 76.1241C64.7634 78.478 74.3695 82.9842 77.9647 84.5112C73.8654 93.5005 73.7959 98.1117 82.1336 98.6081C82.2463 114.724 81.1771 115.086 79.1621 124.244H79.1606ZM82.6508 95.9153C81.4025 97.5095 77.1371 96.6294 76.6407 93.7784C76.1598 91.0254 81.2975 81.7204 83.1024 77.2296C85.2043 77.5303 87.3463 77.3763 89.3835 76.778C84.8757 86.7099 84.6488 93.353 82.6524 95.9153H82.6508Z" fill="#001434"/>
<path d="M73.9874 36.625C74.9063 36.4435 75.8554 36.4868 76.7539 36.7514C77.6524 37.0159 78.4736 37.4938 79.1475 38.1443C79.982 39.0854 81.2767 37.8818 80.5765 36.8319C78.8781 34.2966 73.088 33.4999 72.8564 35.8391C72.8062 36.3772 73.4532 36.7153 73.9874 36.625Z" fill="#001434"/>
<path d="M70.9934 52.2487C79.26 54.0544 84.9242 40.7319 74.699 38.4606C64.8698 36.2789 61.4251 50.3156 70.9934 52.2487ZM67.3225 44.4105C70.5116 44.9447 74.6643 45.5762 78.1614 45.8997C77.1463 52.4216 66.0587 51.5346 67.3225 44.4105Z" fill="#001434"/>
<path d="M77.0864 55.2727C77.0964 55.5234 77.203 55.7605 77.3839 55.9343C77.5648 56.1081 77.8059 56.2052 78.0568 56.2052C78.3076 56.2052 78.5488 56.1081 78.7297 55.9343C78.9106 55.7605 79.0172 55.5234 79.0272 55.2727C79.002 54.9691 79.0523 54.664 79.1735 54.3845C79.2947 54.105 79.4831 53.8599 79.722 53.6708C80.7827 52.9181 81.9786 53.836 82.6023 52.678C83.1968 51.5717 80.2554 50.7071 78.2251 52.4819C77.8266 52.8227 77.5153 53.2537 77.3173 53.7392C77.1192 54.2247 77.04 54.7504 77.0864 55.2727Z" fill="#001434"/>
<path d="M91.6719 63.6449C100.539 64.3397 103.392 51.0211 93.5749 49.3898C83.4662 47.7099 81.4165 62.8413 91.6719 63.6449ZM86.8654 55.1976C90.002 55.7241 94.1925 56.3788 97.78 56.7247C97.2682 64.0966 85.0674 62.7949 86.8654 55.1976Z" fill="#001434"/>
<path d="M74.6711 58.5751C74.4208 58.545 74.1687 58.6134 73.968 58.7659C73.7673 58.9184 73.6338 59.143 73.5958 59.3922C73.5578 59.6414 73.6182 59.8956 73.7643 60.101C73.9104 60.3064 74.1307 60.4469 74.3785 60.4928C78.8994 61.1621 78.5829 62.3811 78.8994 63.0582C79.2676 63.8479 81.0124 63.8858 80.7522 62.3634C80.492 60.841 79.4027 58.921 74.6711 58.5751Z" fill="#001434"/>
<path d="M81.4417 89.9422C78.5003 88.9192 76.7402 93.1846 80.313 94.1882C83.3671 95.0575 84.2255 90.9126 81.4417 89.9422Z" fill="#001434"/>
<path d="M53.3454 79.1326C53.0956 78.9638 52.8136 78.8485 52.5171 78.7939C52.2206 78.7393 51.916 78.7466 51.6224 78.8153C51.3289 78.8841 51.0527 79.0129 50.8113 79.1935C50.5699 79.3741 50.3685 79.6027 50.2197 79.8649C50.0709 80.1272 49.9779 80.4173 49.9466 80.7172C49.9154 81.0171 49.9464 81.3202 50.0379 81.6074C50.1294 81.8947 50.2793 82.16 50.4783 82.3866C50.6772 82.6131 50.9208 82.7961 51.1939 82.924C51.4436 83.0928 51.7257 83.2081 52.0222 83.2627C52.3187 83.3173 52.6233 83.31 52.9168 83.2412C53.2104 83.1725 53.4865 83.0437 53.7279 82.8631C53.9693 82.6825 54.1708 82.4539 54.3196 82.1916C54.4684 81.9294 54.5614 81.6393 54.5926 81.3394C54.6239 81.0395 54.5928 80.7364 54.5014 80.4491C54.4099 80.1619 54.26 79.8966 54.061 79.67C53.8621 79.4435 53.6185 79.2605 53.3454 79.1326Z" fill="#001434"/>
</svg>
